<?xml version="1.0" encoding="UTF-8"?>
<svg id="Layer_2" data-name="Layer 2" xmlns="http://www.w3.org/2000/svg" viewBox="0 0 825.11 1347.78">
  <defs>
    <style>
      .cls-1 {
        fill: #fff;
      }

      .cls-2 {
        letter-spacing: .02em;
      }

      .cls-3 {
        letter-spacing: -.02em;
      }

      .cls-4 {
        font-family: ParmaPetit-Normal, ParmaPetit;
        font-size: 346.91px;
      }

      .cls-5 {
        letter-spacing: 0em;
      }

      .cls-6 {
        letter-spacing: 0em;
      }

      .cls-7 {
        letter-spacing: 0em;
      }
    </style>
  </defs>
  <g id="Layer_1-2" data-name="Layer 1">
    <g>
      <g>
        <path d="m108.72,1345.21c-50.32-3.75-19.21-74.71,18.64-43.64l-3.29,3.36c-12.42-12.74-37.35-3.59-36.49,14.85-.8,18.44,23.86,27.44,36.49,15.07l3,4c-4.9,4.35-11.73,6.36-18.35,6.36Zm13.28-7v-18.43h5.07v19.07l-5.07-.64Z"/>
        <path d="m194.63,1345.21c-26.92,1.66-19.71-33.48-20.57-50.42h5.29c1.69,13.31-7.11,47.02,15.28,45.71,22.46,1.4,13.69-32.41,15.36-45.71h5.14c-.88,16.95,6.38,52.04-20.5,50.42Z"/>
        <path d="m269.06,1340.21h30.07v4.57h-35.35v-49.99h34.28v4.57h-29v40.85Zm-.57-23.07h26.42v4.5h-26.42v-4.5Z"/>
        <path d="m359.31,1345.21c-6.38.05-14.34-2.19-18.57-6.5l2.07-4.07c20.78,18.17,48.96-8.31,11.28-13.75-30.86-11.7,1.94-37.4,21.78-22.1l-1.79,4.21c-8.39-7.33-33.39-5.17-25.25,9.64,7.42,6.68,21.19,3.89,27.42,12.57,6.27,10.96-5.2,21.2-16.96,20Z"/>
        <path d="m434.43,1344.78v-45.42h-17.57v-4.57h40.42v4.57h-17.57v45.42h-5.28Z"/>
        <path d="m555.83,1344.78v-49.99h5.28v49.99h-5.28Z"/>
        <path d="m610.14,1344.78v-49.99h4.36l34.49,43.42h-2.29v-43.42h5.21v49.99h-4.36l-34.42-43.42h2.29v43.42h-5.28Z"/>
        <path d="m700.96,1344.78v-49.99h4.36l34.49,43.42h-2.29v-43.42h5.21v49.99h-4.36l-34.42-43.42h2.29v43.42h-5.28Z"/>
      </g>
      <g>
        <g>
          <path d="m431.69,1019.41c.16.28.34.56.51.85.08-.3.15-.6.21-.9-.24.02-.48.04-.72.05Zm0,0c.16.28.34.56.51.85.08-.3.15-.6.21-.9-.24.02-.48.04-.72.05Zm0,0c.16.28.34.56.51.85.08-.3.15-.6.21-.9-.24.02-.48.04-.72.05Zm33.2-4.18c.18.17.36.33.55.51.04-.21.08-.42.12-.63-.22.04-.44.08-.67.12Zm-33.2,4.18c.16.28.34.56.51.85.08-.3.15-.6.21-.9-.24.02-.48.04-.72.05Zm0,0c.16.28.34.56.51.85.08-.3.15-.6.21-.9-.24.02-.48.04-.72.05Zm0,0c.16.28.34.56.51.85.08-.3.15-.6.21-.9-.24.02-.48.04-.72.05Zm0,0c.16.28.34.56.51.85.08-.3.15-.6.21-.9-.24.02-.48.04-.72.05Z"/>
          <path d="m128.51,641.88c-.19,1.76-.19,3.5.12,5.2-.04-1.72-.07-3.46-.12-5.2Zm0,0c-.19,1.76-.19,3.5.12,5.2-.04-1.72-.07-3.46-.12-5.2Zm519.32,253.28c-5.73,8.34-11.88,16.38-18.44,24.09,0,0,0,.01-.01.01-6.99,8.23-14.43,16.08-22.28,23.5.06.08.11.16.16.24,7.88-7.36,15.35-15.2,22.35-23.42,6.55-7.68,12.7-15.72,18.41-24.08-.06-.11-.13-.23-.19-.34Zm-519.32-253.28c-.19,1.76-.19,3.5.12,5.2-.04-1.72-.07-3.46-.12-5.2Zm569.1,84.38v8.74c.03-2.93.02-5.85,0-8.74Zm0,0v8.74c.03-2.93.02-5.85,0-8.74Zm-26.57,128.62s.05.06.07.09c2.12-4.55,4.12-9.16,6-13.83-1.9,4.63-3.93,9.21-6.07,13.74Zm-542.53-213c-.19,1.76-.19,3.5.12,5.2-.04-1.72-.07-3.46-.12-5.2Zm0,0c-.19,1.76-.19,3.5.12,5.2-.04-1.72-.07-3.46-.12-5.2Zm135.47,335.71c-.08.14-.17.29-.25.43,8.98,5.53,18.27,10.55,27.82,15.05.03-.05.06-.11.09-.16-9.49-4.59-18.73-9.71-27.66-15.32Zm-64.14-54.07c-.13.19-.26.39-.39.59,7.17,8.08,14.8,15.74,22.84,22.95.13-.21.26-.43.4-.64-8.02-7.22-15.66-14.87-22.85-22.9Zm-19.26-23.85h0c-2.65-3.66-5.21-7.37-7.68-11.14-3.2-4.86-6.25-9.81-9.15-14.86-.05.02-.09.05-.14.07,2.87,5.14,5.9,10.18,9.08,15.11,2.45,3.81,4.99,7.55,7.62,11.23.11.15.21.3.32.45.14-.07.29-.13.44-.19-.16-.23-.33-.44-.49-.67Zm-51.95-252.57s-.01-.01,0-.02c-.04-1.72-.07-3.46-.12-5.2v-.05c-.17-7.61-.37-15.31-.6-23.1-.26,1.77-.42,3.58-.48,5.43-.33,2.25-1.01,4.67-1.72,7.23-.89,3.2-1.81,6.5-2.17,9.91l-.03.32c-.12,1.27-.16,2.47-.11,3.63l-1.68,1.69,2.31,2.54c.82,3.14,2.42,5.98,4.79,8.48-.06-3.59-.12-7.22-.19-10.86Zm-1.12,72.52c0,4.63-.03,9.94.01,15.28.3-5.09.56-10.27.76-15.53-.26.08-.51.16-.77.25Z"/>
          <path d="m729.08,620.73c.45-54.22,1.03-119.8.88-181.13-.05-14.6-.13-28.95-.26-42.86-.19-19.22-.47-37.57-.89-54.51-.18-6.99-.38-13.74-.6-20.21-1.37-39.8-3.69-69-7.47-78.54-1.7-7.52-3.66-14.89-5.85-22.1-16.13-53.13-45.13-97.95-82.19-133.05-25.54-24.19-54.91-43.78-86.55-58.29-8.04-3.7-16.22-7.06-24.53-10.09-12.02-4.39-24.31-8.07-36.76-11.03-7.92-1.89-15.9-3.48-23.94-4.77C444.32,1.48,427.52.07,410.67,0c-7.2-.04-14.42.17-21.63.63-19.56,1.23-39.07,4.28-58.24,9.24-6.09,1.56-12.15,3.32-18.16,5.27-20.12,6.54-39.77,15.24-58.62,26.21-4.78,2.77-9.51,5.7-14.18,8.78-17.99,11.83-35.13,25.84-51.11,42.13-.35.34-.69.69-1.03,1.04-3.61,3.61-7.12,7.32-10.52,11.1-15.94,17.65-29.75,37.05-41.24,57.7-2.3,4.13-4.5,8.3-6.61,12.53-7.52,15.04-13.83,30.67-18.86,46.72-1.37,4.31-2.63,8.65-3.79,13.02-6.37,23.74-9.97,48.27-10.57,73.05-.08,2.89-.11,5.78-.1,8.67v418.91c-.07,15.29,1.03,30.54,3.23,45.63.77,5.29,1.68,10.55,2.72,15.78,11.57,58.32,39.65,113.26,80.86,156.36,91.56,98.68,228.56,119.99,342.49,77.32,4.5-1.69,8.96-3.47,13.39-5.36,42.85-18.25,81.92-45.79,113.39-81.87,4.28-4.9,8.41-9.96,12.39-15.17,17.3-22.63,31.76-48.19,42.62-76.52,14.66-37.01,22.02-76.38,22.01-116.17-.36-6.69-.49-19.31-.49-36.29.01-20.54.21-47.47.46-77.99Zm-115.13-506.18c32.47,32.38,57,72.36,70.86,117.05-5.01,4.64-10.65,8.48-16.85,11.5-9.52,4.65-19.78,7.01-30.51,7.01-38.49,0-69.81-31.31-69.81-69.8,0-21.84,9.95-42.03,27.29-55.37,5.83-4.48,12.2-7.96,19.02-10.39Zm63.16,726.6c-1.88,4.67-3.88,9.28-6,13.83-.02-.03-.04-.06-.07-.09-2.22,4.69-4.57,9.31-7.04,13.87-3.83,7.07-7.95,13.99-12.35,20.71-1.25,1.92-2.53,3.82-3.82,5.7.06.11.13.23.19.34-5.71,8.36-11.86,16.4-18.41,24.08-7,8.22-14.47,16.06-22.35,23.42-.05-.08-.1-.16-.16-.24-18.94,17.9-40.24,33.29-63.3,45.45-4.47,2.35-9,4.58-13.58,6.69-20.46,9.38-42.13,16.28-64.66,20.21-.04.21-.08.42-.12.63-.19-.18-.37-.34-.55-.51-10.63,1.99-21.47,3.37-32.48,4.13-.06.3-.13.6-.21.9-.17-.29-.35-.57-.51-.85-7.87.71-15.72,1.04-23.52,1-4.33-.01-8.65-.13-12.95-.37-36.27-1.94-71.39-11.53-103.58-27.13-.03.05-.06.11-.09.16-9.55-4.5-18.84-9.52-27.82-15.05.08-.14.17-.29.25-.43-14.63-9.16-28.46-19.61-41.29-31.17-.14.21-.27.43-.4.64-8.04-7.21-15.67-14.87-22.84-22.95.13-.2.26-.4.39-.59-6.64-7.41-12.91-15.15-18.77-23.18-.15.06-.3.12-.44.19-.11-.15-.21-.3-.32-.45-2.63-3.68-5.17-7.42-7.62-11.23-3.18-4.93-6.21-9.97-9.08-15.11.05-.02.09-.05.14-.07-18.8-32.73-31.14-69.16-35-107.39-.59-5.8-.98-11.65-1.16-17.54-.16-4.56-.18-9.14-.08-13.74,0-.03,0-.07.01-.1-.04-5.34-.01-10.65-.01-15.28.26-.09.51-.17.77-.25.75-19.39.83-39.95.54-61.4h0c-2.37-2.51-3.97-5.35-4.79-8.49l-2.31-2.54,1.68-1.69c-.05-1.16-.01-2.36.11-3.63l.03-.32c.36-3.41,1.28-6.71,2.17-9.91.71-2.56,1.39-4.98,1.72-7.23.06-1.85.22-3.66.48-5.43,0,0,0-.02,0-.03-.03-1.1-.07-2.21-.1-3.32-.16-5.27-.33-10.57-.51-15.91-1.08-32.42-2.43-66.07-3.21-100.08-.11-4.83-.21-9.67-.29-14.52-.49-28.23-.51-56.62.41-84.68.16-4.62.33-9.23.54-13.83,1.15-25.53,3.15-50.72,6.38-75.17.59-4.51,1.23-8.99,1.91-13.44,3.58-23.49,8.38-46.24,14.74-67.88,1.28-4.4,2.64-8.75,4.06-13.05,4.84-14.66,10.45-28.76,16.95-42.19,2.06-4.25,4.2-8.42,6.44-12.53,10.41-19.14,22.83-36.74,37.61-52.42,3.56-3.78,7.26-7.46,11.11-11.01,15.53-14.37,33.37-26.83,53.87-37.04,5.58-2.79,11.35-5.4,17.33-7.83,18.67-7.64,39.32-13.57,62.15-17.58,7.25-1.29,14.72-2.38,22.42-3.26,1.98-.23,3.97-.45,5.98-.65,16.69-1.63,33.61-1.7,50.43-.29,9.47.79,18.9,2.05,28.24,3.79,15.35,2.82,30.45,6.89,45.02,12.14,5.03,1.82,9.99,3.77,14.87,5.86,5.31,2.27,10.54,4.7,15.66,7.3,19.32,9.73,37.34,21.52,53.77,35.06-4.89,2.55-9.56,5.53-14,8.95-23.55,18.11-37.05,45.52-37.05,75.18,0,52.28,42.53,94.8,94.81,94.8,14.56,0,28.52-3.21,41.46-9.54,4.46-2.17,8.71-4.65,12.73-7.45,2.8,13.45,4.64,27.24,5.48,41.32.32,5.51.49,11.07.49,16.66v410.17c.02,2.89.03,5.81,0,8.74v.14c.55,36.73-6.81,72.69-20.5,106Z"/>
        </g>
        <path class="cls-1" d="m334.87,739.25h-8.88l-1.07-.55c-8.87-4.52-18.16-8.56-27.59-11.98l-2.83-1.02-.25-.09-.21-3.27c-.04-.68-.07-1.38-.1-2.1-.03-.94-.04-1.92-.06-2.92-.07-3.82-.15-8.15-.99-12.03-.65-2.99-1.75-5.71-3.64-7.7l-.28-.29-.22-.33c-8.38-12.23-10.31-26.35-12.17-40.02-.21-1.51-.41-3.03-.63-4.56-.35-2.4-.71-4.81-1.13-7.15l-.13-.73-.11-.62.48-1.29c1.61-4.26,4.46-7.43,7.22-10.5,2-2.22,3.88-4.32,5.03-6.58l.13.03h.01l5.12,1.33,4.2,1.09c-.4,9.7,2.55,18.67,5.67,28.16.56,1.69,1.12,3.38,1.66,5.09,2.95,7.31,3.18,14.69,3.27,21.85v.1c.01.36.02.72.02,1.08.08,6.51.15,12.71,2.19,18.41.33.92.71,1.83,1.15,2.72l.1.2.09.21c1.6,4.16,3.7,6.71,6.83,8.26,2.16,1.07,4.25,3.66,4.62,6.47.44.69,1.8,1.49,3.11,2.27,3.08,1.83,7.73,4.59,8.59,10.77l.66,4.67.14,1.02Z"/>
        <path d="m329.12,734.25h-1.93c-9.13-4.66-18.54-8.74-28.16-12.23-.5-7.82.83-20.53-6.16-27.88-10.03-14.64-10.09-32.86-13.13-49.78,2.37-6.29,8.91-10.41,12.03-16.59-.51,12.48,3.94,23.52,7.62,35.15,5.92,14.43-.18,30.41,6.86,44.67,1.82,4.73,4.56,8.6,9.28,10.94.95.47,2.02,2.09,1.88,3.01,1.57,5.83,10.72,5.62,11.71,12.71Z"/>
        <path class="cls-1" d="m192.06,707l2.7,4.73-7.78.67c-2.69.23-5.45.52-8.22.85l-3.21.39h-.07s-1.65-2.86-1.65-2.86c-.34-.6-.71-1.19-1.08-1.78-1.31-2.08-2.81-4.13-4.37-6.15-1.25-1.64-2.56-3.26-3.85-4.86-1.6-1.99-3.26-4.05-4.8-6.1-5.89-6.96-3.49-14.73-1.73-20.42.08-.26.16-.52.24-.78.01,0,.01,0,.01,0,.77-2.52,1.44-4.9,1.41-7.01l-.02-1.43.74-1.22c.21-.35.43-.69.65-1.02,3.5-5.28,8.52-9.26,13.37-13.13,5.21-4.14,10.12-8.05,13.01-13.24l.96.38,4.84,1.89,3.43,1.34c-2.11,8.72-5.6,15.39-8.69,21.27-4.8,9.15-8.57,16.35-5.36,28.36.96,3.61,2.56,7.66,4.95,12.33.12.18.24.37.35.56.81,1.28,1.55,2.6,2.27,3.88l.73,1.3,1.17,2.06Z"/>
        <path d="m183.21,701.71c1.17,1.79,2.23,3.76,3.34,5.71-2.8.24-5.59.53-8.39.87-4.02-6.99-9.85-13.27-14.52-19.52-6.61-7.65,1.13-16.46,1.02-25.16,6.36-10.5,20.65-15.94,27.12-27.54-6.23,25.76-25.62,32.58-8.57,65.64Z"/>
        <g>
          <g>
            <path d="m464.89,1015.23c.18.17.36.33.55.51.04-.21.08-.42.12-.63-.22.04-.44.08-.67.12ZM127.51,719.62c0,4.63-.03,9.94.01,15.28.3-5.09.56-10.27.76-15.53-.26.08-.51.16-.77.25Z"/>
            <path d="m371.16,762.43c-.33.33-.67.67-1,1.01-.51.52-1.02,1.04-1.53,1.56s-1.01,1.05-1.51,1.58c-.66.69-1.32,1.38-1.95,2.07-.52.55-1.03,1.1-1.52,1.65-.49.53-.97,1.06-1.44,1.59-.67.74-1.33,1.48-1.98,2.23-.54.61-1.08,1.23-1.6,1.85-.43.49-.84.99-1.26,1.48-.03.03-.05.06-.07.09-.5.58-.99,1.16-1.47,1.75-.07.09-.15.18-.22.27-.2.24-.4.48-.59.72-.24.29-.47.57-.7.86-.57.7-1.13,1.4-1.69,2.11-.79.99-1.56,1.99-2.33,2.99-20.38-16.62-44.79-29.23-70.98-37.37-4.17-1.31-8.39-2.49-12.64-3.56-39.48-9.93-82.07-9.95-120.52,1.38-6.14,1.81-12.18,3.91-18.08,6.3-.11-1.44-.19-2.95-.26-4.51-.2-4.28-.28-8.95-.3-13.58.3-5.09.56-10.27.76-15.53.45-.15.9-.3,1.35-.44l-.38,5.28,6.96-2.1c3.73-1.13,7.69-2.22,11.76-3.23l6.11-1.51-2.3-4.52c3.14-.72,6.29-1.37,9.46-1.96,3.82-.72,7.66-1.35,11.51-1.89.37.59.74,1.18,1.08,1.78l1.65,2.87h.07s3.21-.4,3.21-.4c2.77-.33,5.53-.62,8.22-.85l7.78-.67-2.7-4.73c18.31-1.22,36.75-.53,54.91,2.05,0,.13-.02.25-.03.38l-.34,4.57,4.53.74c4.32.7,8.32,1.45,12.25,2.29l8.74,1.87-1.93-5.47c4.97,1.16,9.9,2.47,14.78,3.94,3.01.89,6,1.84,8.97,2.86.03.72.06,1.42.1,2.1l.21,3.27.25.09,2.83,1.02c9.43,3.42,18.72,7.46,27.59,11.98l1.07.55h8.88l-.14-1.02c12.59,6.9,24.64,14.88,36.04,23.9.13.1.26.21.39.31Z"/>
            <path d="m151.78,712.85l2.3,4.52-6.11,1.51c-4.07,1.01-8.03,2.1-11.76,3.23l-6.96,2.1.38-5.28c1.7-.56,3.41-1.1,5.13-1.61,3.97-1.2,7.98-2.29,12.01-3.29,1.67-.41,3.33-.81,5.01-1.18Z"/>
            <path d="m192.06,707l2.7,4.73-7.78.67c-2.69.23-5.45.52-8.22.85l-3.21.39h-.07s-1.65-2.86-1.65-2.86c-.34-.6-.71-1.19-1.08-1.78,1.8-.26,3.6-.49,5.41-.71.79-.1,1.59-.19,2.38-.27.23-.03.47-.05.7-.07.54-.07,1.07-.13,1.61-.18h.03c1.22-.13,2.44-.24,3.67-.35,1.83-.16,3.67-.3,5.51-.42Z"/>
            <path d="m270.19,713.43l1.93,5.47-8.74-1.87c-3.93-.84-7.93-1.59-12.25-2.29l-4.53-.74.34-4.57c.01-.13.02-.25.03-.38,1.66.23,3.31.48,4.96.75,4.19.68,8.35,1.45,12.5,2.34,1.92.41,3.84.83,5.76,1.29Z"/>
            <path d="m334.87,739.25h-8.88l-1.07-.55c-8.87-4.52-18.16-8.56-27.59-11.98l-2.83-1.02-.25-.09-.21-3.27c-.04-.68-.07-1.38-.1-2.1,1.13.37,2.25.76,3.37,1.17.58.2,1.15.4,1.72.61,9.62,3.49,19.03,7.57,28.16,12.23,2.53,1.28,5.05,2.61,7.54,3.98l.14,1.02Z"/>
          </g>
          <path d="m318.75,826.98c-4.96,2-9.86,4.15-14.69,6.47-6.1,2.81-12.1,5.89-17.98,9.21-16.1-10.43-35.23-17.12-55.11-19.93-4.67-.67-9.37-1.11-14.09-1.35h-.01c-24.74-1.2-49.81,3.51-70.96,14.43-3.74-9.88-6.96-20.03-9.6-30.4,22.77-10.4,47.71-15.87,73.49-15.87,9,0,17.89.67,26.63,1.98,4.48.67,8.92,1.51,13.32,2.52,25.08,5.76,48.56,16.93,69,32.94Z"/>
          <g>
            <path d="m180.58,899.67h0c-2.65-3.66-5.21-7.37-7.68-11.14-3.2-4.86-6.25-9.81-9.15-14.86-.05.02-.09.05-.14.07,2.87,5.14,5.9,10.18,9.08,15.11,2.45,3.81,4.99,7.55,7.62,11.23.11.15.21.3.32.45.14-.07.29-.13.44-.19-.16-.23-.33-.44-.49-.67Z"/>
            <path d="m247.08,869.82c-9.13,7.74-17.78,16.23-25.86,25.46-13.4-2.22-28.09-.29-40.15,5.06-.16-.23-.33-.44-.49-.67h0c-2.65-3.66-5.21-7.37-7.68-11.14-3.2-4.86-6.25-9.81-9.15-14.86,7.67-3.82,15.87-6.71,24.47-8.54h.01c5.31-1.12,10.77-1.84,16.35-2.12,1.73-.09,3.47-.13,5.22-.13,13.13,0,25.71,2.45,37.28,6.94Z"/>
          </g>
        </g>
        <g>
          <g>
            <path d="m629.39,919.25s0,.01-.01.01c-6.99,8.23-14.43,16.08-22.28,23.5-13.79-21.56-30.55-39.69-49.36-54.42-3.74-2.94-7.57-5.73-11.47-8.39-26.24-17.93-55.8-29.73-86.43-35.44-4.14-.78-8.3-1.44-12.47-1.98-34.9-4.61-70.77-1.43-104.33,9.49-5.61,1.83-11.16,3.87-16.62,6.13h-.01c-41.35,17.08-78.12,46.53-103.72,88.27-8.02-7.22-15.66-14.87-22.85-22.9,6.56-10.08,13.71-19.49,21.38-28.24,8.08-9.23,16.73-17.72,25.86-25.46,12.22-10.39,25.29-19.45,39-27.17,5.88-3.32,11.88-6.4,17.98-9.21,13.14-6.09,26.75-11.05,40.64-14.87l.25-.55c5.14-1.46,10.34-2.75,15.59-3.88l-.31.66c31.55-6.68,64.24-7.64,96.12-2.86l.17-.59h.01c4.16.64,8.29,1.38,12.39,2.23l-.15.52c26.72,5.29,52.69,14.67,76.73,28.16,1.87,1.05,3.73,2.13,5.58,3.23,3.93,2.34,7.8,4.79,11.62,7.35h0c25.46,17.12,48.21,39.25,66.69,66.41Z"/>
            <path d="m222.69,946.42c-.14.21-.27.43-.4.64-8.04-7.21-15.67-14.87-22.84-22.95.13-.2.26-.4.39-.59,7.19,8.03,14.83,15.68,22.85,22.9Z"/>
            <path d="m629.61,919.58c-7,8.22-14.47,16.06-22.35,23.42-.05-.08-.1-.16-.16-.24,7.85-7.42,15.29-15.27,22.28-23.5.01,0,.01-.01.01-.01.07.11.14.22.22.33Z"/>
          </g>
          <g>
            <path d="m566.48,974.82c-7.32,4.72-14.88,9.11-22.65,13.15-1.61.85-3.23,1.67-4.86,2.48-2.11-3.51-4.35-6.87-6.71-10.1h0c-23.51-32.16-58.87-50.59-96.04-55.43-4.23-.56-8.47-.93-12.73-1.12-51.38-2.42-103.99,20.72-131.85,69.11-9.49-4.59-18.73-9.71-27.66-15.32,5.91-10.29,12.71-19.65,20.24-28.09,7.35-8.26,15.4-15.62,24-22.1h.01c35.67-26.88,80.69-38.46,124.37-34.6,4.22.36,8.42.88,12.6,1.54,34.14,5.37,66.81,20.33,92.79,44.92,3.83,3.62,7.51,7.46,11.04,11.5h0c6.38,7.34,12.23,15.35,17.45,24.06Z"/>
            <path d="m291.64,992.91s-.06.11-.09.16c-9.55-4.5-18.84-9.52-27.82-15.05.08-.14.17-.29.25-.43,8.93,5.61,18.17,10.73,27.66,15.32Z"/>
          </g>
          <path d="m464.89,1015.23c.18.17.36.33.55.51.04-.21.08-.42.12-.63-.22.04-.44.08-.67.12Z"/>
        </g>
        <g>
          <g>
            <path d="m697.61,726.27v8.88c-.08,9.65-.46,19.45-1.46,28.77-10.36-8.55-21.5-15.88-33.21-22.02-4.12-2.17-8.31-4.18-12.57-6.05-21.74-9.57-45.1-15.33-68.9-17.5-4.17-.38-8.34-.65-12.53-.8-24.98-.95-50.21,1.99-74.34,8.61h0c-4.83,1.33-9.62,2.81-14.35,4.43-43.95,15.04-83.15,42.66-108.96,81.47-3.6.62-7.19,1.32-10.75,2.09-5.25,1.13-10.45,2.42-15.59,3.88-6.14,1.73-12.21,3.7-18.19,5.88,6.71-13.44,14.61-26.01,23.54-37.66.77-1,1.54-2,2.33-2.99.56-.71,1.12-1.41,1.69-2.11.23-.29.46-.57.7-.86.19-.24.39-.48.59-.72.07-.09.15-.18.22-.27.48-.59.97-1.17,1.47-1.75.02-.03.04-.06.07-.09.42-.49.83-.99,1.26-1.48.52-.62,1.06-1.24,1.6-1.85.65-.75,1.31-1.49,1.98-2.23.47-.53.95-1.06,1.44-1.59.49-.55,1-1.1,1.52-1.65.64-.7,1.29-1.39,1.95-2.07.5-.53,1-1.06,1.51-1.58s1.02-1.04,1.53-1.56c.33-.34.67-.68,1-1.01,7.09-7.09,14.59-13.73,22.45-19.89,28.64-22.48,62.02-38.75,97.24-48.04,4.64-1.24,9.32-2.34,14.03-3.33,22.5-4.7,45.58-6.58,68.5-5.45,4.18.2,8.35.51,12.52.91,21.88,2.14,43.49,7.07,64.19,14.96,4.23,1.61,8.41,3.35,12.56,5.21,12.07,5.41,23.77,11.89,34.96,19.46Z"/>
            <path d="m697.61,735v-8.74c.02,2.89.03,5.81,0,8.74Z"/>
            <path d="m499.3,1006.56c-11.22,3.6-22.77,6.52-34.41,8.68-13.31-12.8-31.53-19.06-49.67-18.84-4.52.05-9.03.5-13.45,1.37-13.31,2.56-25.88,8.74-35.62,18.51-11.73-1.93-23.22-4.58-34.58-7.94,18.22-27.27,48.68-41.63,79.72-43,4.33-.19,8.68-.12,13,.2,29.12,2.13,57.34,15.77,75.01,41.02Z"/>
          </g>
          <g>
            <path d="m671.04,854.88s.05.06.07.09c2.12-4.55,4.12-9.16,6-13.83-1.9,4.63-3.93,9.21-6.07,13.74Z"/>
            <path d="m684.06,821.93c-2.09,6.51-4.41,12.92-6.95,19.21-1.9,4.63-3.93,9.21-6.07,13.74-2.27-3.06-4.68-6-7.23-8.82-3.91-4.33-8.13-8.38-12.62-12.14-22.39-18.75-51.44-30.31-81.22-33.22-4.17-.41-8.36-.65-12.54-.71-24.76-.39-49.45,5.3-70.69,17.9-5.87-1.64-11.82-3.09-17.82-4.31-4.1-.85-8.23-1.59-12.39-2.23h-.01c-4.39-.68-8.8-1.25-13.25-1.71,5.62-4.9,11.53-9.36,17.69-13.38,5.08-3.32,10.33-6.33,15.71-9.04,26.26-13.25,55.79-19.41,85.14-18.6,4.19.12,8.37.37,12.53.77,26.99,2.58,53.4,11.08,76.52,25.41,4.32,2.66,8.52,5.54,12.59,8.63,6.66,5.03,12.97,10.6,18.84,16.72.59.59,1.18,1.18,1.77,1.78Z"/>
          </g>
          <g>
            <path d="m647.83,895.16c-5.73,8.34-11.88,16.38-18.44,24.09,0,0,0,.01-.01.01.08.11.16.21.23.32,6.55-7.68,12.7-15.72,18.41-24.08-.06-.11-.13-.23-.19-.34Z"/>
            <path d="m647.83,895.16c-5.73,8.34-11.88,16.38-18.44,24.09-18.48-27.16-41.23-49.29-66.69-66.4h0c-3.82-2.57-7.69-5.02-11.62-7.36-1.85-1.1-3.71-2.18-5.58-3.23,2.02-.22,4.05-.39,6.1-.5,1.81-.09,3.62-.14,5.45-.14,2.42,0,4.81.08,7.18.25,35.98,2.47,66.98,23.36,83.6,53.29Z"/>
          </g>
        </g>
        <text class="cls-4" transform="translate(2.77 1244.75)"><tspan class="cls-2" x="0" y="0">A</tspan><tspan class="cls-5" x="186.99" y="0">b</tspan><tspan class="cls-3" x="348.4" y="0">e</tspan><tspan class="cls-6" x="483.14" y="0">r</tspan><tspan class="cls-7" x="599.1" y="0">t</tspan><tspan x="690.17" y="0">a</tspan></text>
        <path d="m480.4,162.1v12.53H168.79c2.06-4.25,4.2-8.42,6.44-12.53h305.17Z"/>
        <path d="m483.17,137.06l-1.84,12.38-268.49-39.75c3.56-3.78,7.26-7.46,11.11-11.01l259.22,38.38Z"/>
        <path d="m489.58,112.67l-3.63,11.98-208.13-63.02c5.58-2.79,11.35-5.4,17.33-7.83l194.43,58.87Z"/>
        <path d="m499.49,89.5l-5.35,11.32-136.84-64.59c7.25-1.29,14.72-2.38,22.42-3.26l119.77,56.53Z"/>
        <path d="m512.68,68.02l-6.94,10.42-69.61-46.41c9.47.79,18.9,2.05,28.24,3.79l48.31,32.2Z"/>
        <path d="m524.26,53.81l-3.77,4.18-11.1-10.04c5.03,1.82,9.99,3.77,14.87,5.86Z"/>
        <polygon points="697.61 333.81 697.61 335.87 697.02 333.98 697.61 333.81"/>
        <polygon points="697.61 419.71 697.61 500.64 672.27 338.81 684.64 336.86 697.61 419.71"/>
        <path d="m662.65,706.81c-4.15-1.86-8.33-3.6-12.56-5.21l-3-361.65,12.52-.11,3.04,366.97Z"/>
        <path d="m634.41,339.11l-48.51,347.52c-4.17-.4-8.34-.71-12.52-.91l48.63-348.34,12.4,1.73Z"/>
        <path d="m609.59,334.71l-104.71,356.47c-4.71.99-9.39,2.09-14.03,3.33l106.73-363.33,12.01,3.53Z"/>
        <path d="m585.68,326.71l-192.07,415.83c-7.86,6.16-15.36,12.8-22.45,19.89-.13-.1-.26-.21-.39-.31l203.55-440.66,11.36,5.25Z"/>
        <path d="m172.9,888.53c2.47,3.77,5.03,7.48,7.68,11.13h0s-.27.42-.27.42c-2.63-3.68-5.17-7.42-7.62-11.23l.21-.32Z"/>
        <path d="m563.21,315.31l-253.63,387.35-3.29,5.03-7.38,11.27-1.6,2.45-2.81,4.29-.25-.09-.21-3.27c-.04-.68-.07-1.38-.1-2.1-2.97-1.02-5.96-1.97-8.97-2.86l7.92-12.09,3.57-5.45,6.07-9.28,4.84-7.39v-.1l245.36-374.62,10.48,6.86Z"/>
        <path d="m542.64,300.73l-179.54,201.95-3.73,4.19-29.39,33.07-5.74,6.46-22.18,24.94-3.57,4.02-50.55,56.86-5.57,6.26-54.48,61.29-3.48,3.91-3.87,4.35-4.99,5.62h-.07s-1.65-2.86-1.65-2.86c-.34-.6-.71-1.19-1.08-1.78-3.85.54-7.69,1.17-11.51,1.89l7.14-8.04,3.38-3.8,6.93-7.8,3.9-4.38,42.36-47.65,4.28-4.82,61.26-68.9,3.45-3.88,32.36-36.4,6.12-6.88h.01s10.96-12.35,10.96-12.35l4.91-5.52,184.98-208.07,9.36,8.32Z"/>
        <path d="m524.43,283.28l-288.56,241.62-4.55,3.8-95.75,80.18h-.01s-6.93,5.81-6.93,5.81l-.82.69c-.16-5.27-.33-10.57-.51-15.91l14.61-12.24h.01s17.08-14.3,17.08-14.3h.01s50.17-42.02,50.17-42.02l9.68-8.11h.01s297.52-249.12,297.52-249.12l8.04,9.6Z"/>
        <path d="m508.98,263.37L124.09,499.39c-.11-4.83-.21-9.67-.29-14.52l378.63-232.18,6.55,10.68Z"/>
        <path d="m496.6,241.4L124.21,400.19c.16-4.62.33-9.23.54-13.83l366.94-156.47,4.91,11.51Z"/>
        <path d="m487.58,217.87l-356.45,93.32c.59-4.51,1.23-8.99,1.91-13.44l351.37-92,3.17,12.12Z"/>
        <path d="m482.1,193.27l-334.32,36.61c1.28-4.4,2.64-8.75,4.06-13.05l328.9-36.01,1.36,12.45Z"/>
        <path class="cls-1" d="m391.9,529.37c-1.58,3.48-4.61,5.45-8.51,5.45-1.81,0-3.51-.41-5.02-.78-.24-.04-.48-.06-.72-.06-1.66,0-3.5,1.03-5.64,2.23-2.74,1.54-5.83,3.27-9.72,3.46.61,13.17.38,30-4.24,44.47-6.16,19.29-18.74,30.62-37.4,33.68-4.17,1.41-8.64,1.5-12.97,1.58-4.48.09-8.73.17-11.36,1.77-1.32,2.02-2.56,3.92-3.75,5.7-.27.42-.54.82-.81,1.22-2.34,3.5-4.41,6.52-6.22,9.16-2.17,3.16-4.01,5.86-5.59,8.31-1.57,2.43-2.88,4.63-4,6.82-4.68,9.18-5.94,18.26-8.29,44.04l-.05.5-.14.48c-1.25,4.2-.15,7.9,1.68,13.08l1.04,2.95,1.93,5.47-8.74-1.87c-3.93-.84-7.93-1.59-12.25-2.29l-4.53-.74.34-4.57c.01-.13.02-.25.03-.38.11-1.37.22-2.75.34-4.13.38-4.61.77-9.37.78-13.84-.07-7.91,1.04-15.93,2.11-23.68,1.5-10.83,2.93-21.14,1.32-30.99-3,.88-6.06,1.57-9.15,2.06-3.91.63-7.89.95-11.9.95-1.84,0-3.68-.06-5.52-.2-9.38-.66-18.69-3-27.77-7.01-.44-.18-.85-.37-1.24-.57-.83,1.47-1.75,2.89-2.73,4.26-.68.96-1.38,1.89-2.13,2.8h-.01c-4.79,5.92-10.72,10.97-16.55,15.95-3.32,2.83-6.58,5.61-9.56,8.49h-.01c-2.48,2.42-4.76,4.9-6.7,7.54,0,0,0,0-.01,0-3.6,4.87-6.05,10.27-6.51,16.77.09,3.52-.43,6.97-.93,10.3-.83,5.44-1.54,10.14.43,14l.55,1.09,2.3,4.52-6.11,1.51c-4.07,1.01-8.03,2.1-11.76,3.23l-6.96,2.1.38-5.28.14-1.97c.07-.87.23-1.76.49-2.72,2.41-9.26,1.07-19.51-.22-29.42-.24-1.82-.48-3.64-.69-5.45l-.02-.11c-.52-5.43.75-9.79,3.89-13.35l.18-.19.18-.18c13.75-12.65,12.79-30.41,11.77-49.21-.06-1.07-.12-2.15-.17-3.23-1.83,5.04-1.32,10.48-.76,16.4.9,9.62,1.92,20.53-8.32,29.26l-3.49,2.97-3.26-3.22c-.18-.18-.36-.36-.53-.54h0c-2.37-2.51-3.97-5.35-4.79-8.49l-2.31-2.54,1.68-1.69c-.05-1.16-.01-2.36.11-3.63l.03-.32c.36-3.41,1.28-6.71,2.17-9.91.71-2.56,1.39-4.98,1.72-7.23.06-1.85.22-3.66.48-5.43,0,0,0-.02,0-.03.18-1.36.43-2.7.72-4.01,2.25-10.23,7.37-19.11,13.28-27.46.01,0,.01-.02.02-.02,2.65-3.75,5.47-7.39,8.26-11,3.43-4.44,6.67-8.63,9.61-12.98,4.88-7.66,12.01-11.68,18.91-15.58,3.67-2.07,7.15-4.03,10.19-6.48,9.71-11.1,19.55-17.14,29.96-18.37h.01c1.34-.17,2.69-.25,4.05-.25,4.22,0,8.53.78,12.95,2.35,6.61,2.34,13.49,6.47,20.78,12.43l.26.22.24.26c4.06,4.38,9.76,6.79,15.79,9.35,7.41,3.14,15.68,6.64,21,14.46.73,1.06,1.4,2.2,2,3.43,2.2,3.96,4.21,6.02,6.12,6.28.14.02.27.03.41.03h.44c.73.06,1.44.08,2.12.08,13.27,0,17.2-9.24,19.21-25.05.44-3.43.78-7.17,1.12-11.19.29-3.42.56-6.77.94-9.98.38-3.27.86-6.4,1.55-9.33-1.46-1.05-2.58-2.36-3.36-3.91-1.56-3.12-1.52-6.91.11-11.27l1-2.7,2.84-.48c.82-.14,1.65-.21,2.47-.21,3.56,0,6.51,1.3,8.88,2.34,1.3.57,2.45,1.08,3.44,1.28,1.65-.28,3.35-.44,5.07-.47.24-.01.48-.01.72-.01,4.85,0,9.53.95,14.08,2.21,2.5.69,4.96,1.47,7.39,2.25,4.65,1.48,9.04,2.88,13.39,3.56,5.66.4,12.41,6.88,13.09,12.7.44,3.76-1.53,6.87-5.07,8.19Z"/>
        <path d="m389.65,524.84c-2.67.07-5.53-3.35-7.78-1,2.01.87,3.94,1.7,5.83,2.52-1.34,4.51-4.98,3.6-8.28,2.79-8.43-1.63-13.37,9.08-22.5,4.29,2.13,31.07.68,73.57-37.5,79.51-8.26,3.02-20.03-.59-26.77,4.69-24.4,37.73-25.57,30.05-29.97,78.33-1.77,5.93-.07,11.01,1.75,16.17-4.15-.89-8.31-1.66-12.5-2.34.47-6.25,1.15-12.59,1.16-18.71-.19-20.31,7.76-41.38,2.09-61.18-18.41,6.99-38.21,5.59-56.08-2.32-5.55-2.11-1.71-9.49-2.84-14.08-2.22,33.82-47.44,40.74-49.54,73.86.32,8.85-4.13,18.45.05,26.66-4.03,1-8.04,2.09-12.01,3.29.04-.56.15-1.13.32-1.74,3.14-12.05.68-24.64-.77-36.8-.34-3.5.14-6.71,2.66-9.56,19.99-18.39,12.4-45.7,12.87-69.83-23.26,17.36.71,40.48-16.98,55.56-2.49-2.46-3.75-5.1-4.23-7.85,0,0-.01-.01,0-.02-.31-1.7-.31-3.44-.12-5.2v-.05c.61-5.69,3.14-11.63,3.91-17.24.67-23.68,19.14-40.18,31.56-58.62,6.71-10.58,19.14-13.56,28.41-21.19,19.6-22.63,38.5-22.07,61.09-3.58,11.01,11.9,30.56,10.78,38.02,26.16,2.35,4.25,5.8,9.07,11.08,9,33.99,2.25,23.9-41.69,31.21-63.13-6.39-1.87-6.05-6.65-4.51-10.77,5.48-.93,9.39,3.14,14.07,3.54,13.62-2.7,26.68,5.46,40.02,7.46,4.62.08,12.69,9.75,6.28,11.38Z"/>
      </g>
    </g>
  </g>
</svg>