<?xml version="1.0" encoding="UTF-8"?>
<svg id="Layer_2" data-name="Layer 2" xmlns="http://www.w3.org/2000/svg" viewBox="0 0 552.24 286.14">
  <defs>
    <style>
      .cls-1 {
        letter-spacing: 0em;
      }

      .cls-2 {
        letter-spacing: 0em;
      }

      .cls-3 {
        letter-spacing: 0em;
      }

      .cls-4 {
        letter-spacing: .02em;
      }

      .cls-5, .cls-6 {
        fill: #050507;
      }

      .cls-7 {
        letter-spacing: 0em;
      }

      .cls-8 {
        letter-spacing: 0em;
      }

      .cls-9 {
        letter-spacing: 0em;
      }

      .cls-10 {
        letter-spacing: 0em;
      }

      .cls-11 {
        letter-spacing: .01em;
      }

      .cls-12 {
        letter-spacing: 0em;
      }

      .cls-6 {
        font-family: SatoshiVariable-Regular, 'Satoshi Variable';
        font-size: 48.81px;
        font-variation-settings: 'wght' 400;
      }

      .cls-13 {
        letter-spacing: 0em;
      }

      .cls-14 {
        letter-spacing: 0em;
      }

      .cls-15 {
        letter-spacing: 0em;
      }

      .cls-16 {
        letter-spacing: 0em;
      }

      .cls-17 {
        letter-spacing: -.01em;
      }
    </style>
  </defs>
  <g id="Layer_1-2" data-name="Layer 1">
    <g>
      <path class="cls-5" d="m227.52,167.75c.02,19.18-15.68,34.69-34.92,34.38-18.79-.3-33.92-15.82-33.78-34.61.04-5.69,1.47-11.05,3.96-15.77,3.81-7.21,3.73-15.86-.35-22.93l-27.35-47.37c-4.59-7.95-13.11-12.78-22.29-12.74-.05,0-.1,0-.14,0s-.1,0-.14,0c-9.18-.04-17.7,4.79-22.29,12.74l-27.09,46.92c-3.63,6.28-3.42,14.11.66,20.1,5.03,7.39,7.26,16.86,5.13,26.85-2.82,13.27-13.39,23.58-26.71,26.15-21.96,4.24-41.18-12.47-41.2-33.66-.02-18.85,15.32-34.29,34.17-34.39.12,0,.23,0,.35,0,6.81.03,13.1-3.61,16.5-9.5l29.05-50.33c4.27-7.4,4.48-16.43.71-24.1-2.4-4.88-3.68-10.41-3.49-16.26C78.87,15.17,93.5.56,111.57.02c19.46-.59,35.42,15.01,35.42,34.34,0,5.46-1.27,10.62-3.54,15.2-3.78,7.65-3.51,16.68.75,24.08l27.71,47.99c4.27,7.4,12.21,11.92,20.75,11.8.13,0,.25,0,.38,0,18.8-.07,34.46,15.52,34.48,34.32Z"/>
      <path class="cls-5" d="m387.25,167.75c.02,19.18-15.68,34.69-34.92,34.38-18.79-.3-33.92-15.82-33.78-34.61.04-5.69,1.47-11.05,3.96-15.77,3.81-7.21,3.73-15.86-.35-22.93l-27.35-47.37c-4.59-7.95-13.11-12.78-22.29-12.74-.05,0-.1,0-.14,0s-.1,0-.14,0c-9.18-.04-17.7,4.79-22.29,12.74l-27.09,46.92c-3.63,6.28-3.42,14.11.66,20.1,5.03,7.39,7.26,16.86,5.13,26.85-2.82,13.27-13.39,23.58-26.71,26.15-21.96,4.24-41.18-12.47-41.2-33.66-.02-18.85,15.32-34.29,34.17-34.39.12,0,.23,0,.35,0,6.81.03,13.1-3.61,16.5-9.5l29.05-50.33c4.27-7.4,4.48-16.43.71-24.1-2.4-4.88-3.68-10.41-3.49-16.26C238.6,15.17,253.23.56,271.3.02c19.46-.59,35.42,15.01,35.42,34.34,0,5.46-1.27,10.62-3.54,15.2-3.78,7.65-3.51,16.68.75,24.08l27.71,47.99c4.27,7.4,12.21,11.92,20.75,11.8.13,0,.25,0,.38,0,18.8-.07,34.46,15.52,34.48,34.32Z"/>
      <path class="cls-5" d="m545.98,167.75c.02,19.18-15.68,34.69-34.92,34.38-18.79-.3-33.92-15.82-33.78-34.61.04-5.69,1.47-11.05,3.96-15.77,3.81-7.21,3.73-15.86-.35-22.93l-27.35-47.37c-4.59-7.95-13.11-12.78-22.29-12.74-.05,0-.1,0-.14,0s-.1,0-.14,0c-9.18-.04-17.7,4.79-22.29,12.74l-27.09,46.92c-3.63,6.28-3.42,14.11.66,20.1,5.03,7.39,7.26,16.86,5.13,26.85-2.82,13.27-13.39,23.58-26.71,26.15-21.96,4.24-41.18-12.47-41.2-33.66-.02-18.85,15.32-34.29,34.17-34.39.12,0,.23,0,.35,0,6.81.03,13.1-3.61,16.5-9.5l29.05-50.33c4.27-7.4,4.48-16.43.71-24.1-2.4-4.88-3.68-10.41-3.49-16.26C397.34,15.17,411.97.56,430.04.02c19.46-.59,35.42,15.01,35.42,34.34,0,5.46-1.27,10.62-3.54,15.2-3.78,7.65-3.51,16.68.75,24.08l27.71,47.99c4.27,7.4,12.21,11.92,20.75,11.8.13,0,.25,0,.38,0,18.8-.07,34.46,15.52,34.48,34.32Z"/>
    </g>
    <text class="cls-6" transform="translate(0 273.64)"><tspan class="cls-14" x="0" y="0">A</tspan><tspan class="cls-9" x="31.44" y="0">b</tspan><tspan class="cls-3" x="60.16" y="0">d</tspan><tspan class="cls-14" x="88.71" y="0">u</tspan><tspan class="cls-1" x="115.66" y="0">r</tspan><tspan class="cls-13" x="132.07" y="0">r</tspan><tspan class="cls-3" x="148.71" y="0">a</tspan><tspan class="cls-8" x="174.24" y="0">hm</tspan><tspan class="cls-3" x="242.91" y="0">a</tspan><tspan class="cls-11" x="268.43" y="0">n </tspan><tspan class="cls-4" x="310.36" y="0">A</tspan><tspan class="cls-10" x="342.75" y="0">. </tspan><tspan class="cls-17" x="370.04" y="0">A</tspan><tspan class="cls-15" x="400.99" y="0">d</tspan><tspan class="cls-16" x="429.49" y="0">e</tspan><tspan class="cls-1" x="455.34" y="0">r</tspan><tspan class="cls-12" x="471.75" y="0">i</tspan><tspan class="cls-7" x="482.15" y="0">n</tspan><tspan class="cls-2" x="509.47" y="0">t</tspan><tspan class="cls-11" x="524.02" y="0">o</tspan></text>
  </g>
</svg>