<?xml version="1.0" encoding="UTF-8"?>
<svg id="Layer_2" data-name="Layer 2" xmlns="http://www.w3.org/2000/svg" viewBox="0 0 1037.02 374.24">
  <g id="Layer_1-2" data-name="Layer 1">
    <g>
      <g>
        <g>
          <path d="m125.62,23.64v28.64h-6.53c-1-3.02-2.35-5.86-4.02-8.54-1.68-2.34-3.86-4.44-6.53-6.28-2.69-1.84-6.2-3.09-10.55-3.77h-56.78v94.97h59.8c3.68-.33,6.7-1.42,9.04-3.27,2.34-1.84,4.18-3.77,5.53-5.78,1.33-2.34,2.34-4.85,3.02-7.54h7.03v44.72h-7.03c-.68-2.68-1.68-5.19-3.02-7.54-1.34-2.01-3.19-4.02-5.53-6.03-2.35-2.01-5.36-3.34-9.04-4.02h-59.8v83.41c1.01,3.35,2.43,6.03,4.27,8.04,1.84,2.01,3.77,3.52,5.78,4.52,2.34,1.34,4.85,2.35,7.54,3.02v6.53H0v-6.53c2.68-.67,5.19-1.67,7.54-3.02,2.01-1.33,4.02-2.93,6.03-4.77,2.01-1.84,3.34-4.6,4.02-8.29V46.26c-.68-3.34-2.01-6.03-4.02-8.04-2.01-2.01-4.02-3.68-6.03-5.02-2.35-1.34-4.86-2.34-7.54-3.02v-6.53h125.62Z"/>
          <path d="m248.42,224.26c.58,3.22,1.68,5.69,3.28,7.44,1.6,1.75,3.28,3.22,5.04,4.38,2.04,1.17,4.23,2.05,6.57,2.63v5.69h-31.97v-20.14c-2.92,2.34-6.86,5.04-11.82,8.1-4.97,3.07-11.24,6.06-18.83,8.98-11.68,3.5-21.17,4.96-28.46,4.38-7.3-.59-12.99-2.04-17.08-4.38-4.97-2.63-8.61-6.13-10.95-10.51-4.09-7.01-5.41-13.36-3.94-19.05,1.46-5.69,4.6-10.95,9.41-15.76s10.73-9.26,17.74-13.36c7.01-4.08,14.16-7.88,21.46-11.39,9.34-4.38,17.8-8.32,25.4-11.82,7.59-3.5,13.28-6.13,17.08-7.88v-2.63c-2.05-5.84-4.67-10.95-7.88-15.33-2.92-3.79-6.79-7.23-11.6-10.29-4.82-3.07-10.88-4.45-18.17-4.16-7.59.29-13.94,1.31-19.05,3.07-5.11,1.75-9.13,3.8-12.04,6.13-3.5,2.63-6.13,5.41-7.88,8.32,2.63,0,4.6.51,5.91,1.53,1.31,1.03,2.33,2.19,3.07,3.5.72,1.31,1.16,2.63,1.31,3.94.14,1.31.22,2.41.22,3.28,0,1.75-.51,4.31-1.53,7.66-1.03,3.36-4.31,5.04-9.85,5.04s-9.05-2.11-10.51-6.35c-1.46-4.23-1.61-8.83-.44-13.79.29-2.63,1.6-5.91,3.94-9.85,2.33-3.94,5.76-7.73,10.29-11.39,4.52-3.65,10.29-6.86,17.3-9.63,7.01-2.77,15.47-4.16,25.4-4.16s18.02,2.26,24.28,6.79c6.25,4.53,11.09,9.41,14.5,14.67,3.98,6.13,6.97,13.14,8.96,21.02v59.55c0,3.22.07,6.28.22,9.2.14,2.92.36,5.11.66,6.57Zm-17.08-64.37c-2.63.88-6.5,2.41-11.6,4.6-5.11,2.19-10.58,4.89-16.42,8.1-5.84,3.22-11.54,6.79-17.08,10.73-5.55,3.94-10.29,8.25-14.23,12.92-3.94,4.67-6.5,9.57-7.66,14.67-1.17,5.11-.15,10.29,3.07,15.55,3.5,6.13,8.24,9.2,14.23,9.2s12.19-1.38,18.61-4.16c6.42-2.77,12.48-6.27,18.17-10.51,5.69-4.23,10-7.51,12.92-9.85v-51.23Z"/>
          <path d="m276.67,42.91c-5.8,6.73-11.72,11.37-17.74,13.92l-2.09-4.52c2.55-1.85,4.98-3.65,7.31-5.39,2.32-1.74,4.4-3.65,6.26-5.74,3.48-4.17,5.22-8.58,5.22-13.22,0-1.16-.12-1.97-.35-2.44-.93-.46-1.74-.7-2.44-.7-2.32.23-4.12.41-5.39.52-1.28.12-2.15.17-2.61.17-2.55,0-4.87-.7-6.96-2.09-3.48-2.09-5.22-5.45-5.22-10.09,0-3.01,1.04-5.91,3.13-8.7,2.32-2.78,5.91-4.17,10.79-4.17,5.33,0,9.74,2.09,13.22,6.26,3.48,4.17,5.22,8.93,5.22,14.26,0,8.35-2.78,15.66-8.35,21.92Z"/>
          <path d="m558.76,25.65v6.53c-3.02.68-5.87,1.84-8.54,3.52-2.35,1.68-4.44,3.77-6.28,6.28-1.85,2.51-2.94,5.95-3.27,10.3v198.48l-163.31-183.91v152.76c.67,4.02,2.01,7.21,4.02,9.55,2.01,2.35,4.02,4.19,6.03,5.53,2.34,1.34,5.02,2.35,8.04,3.02v7.03h-47.23v-7.03c3.02-.67,5.69-1.67,8.04-3.02,2.01-1.33,3.93-3.18,5.78-5.53,1.84-2.34,3.09-5.53,3.77-9.55V19.12l163.81,185.92-.5-156.27c-1.01-3.68-2.43-6.53-4.27-8.54-1.85-2.01-3.77-3.68-5.78-5.02-2.35-1.33-4.86-2.34-7.54-3.02v-6.53h47.23Z"/>
          <path d="m671.75,229.04c-1.18.88-3.16,2.19-5.94,3.95-2.79,1.76-6.16,3.37-10.12,4.83-3.96,1.46-8.36,2.85-13.2,4.17-4.84,1.32-9.9,1.97-15.18,1.97-1.47,0-3.08-.07-4.84-.22-1.76-.14-3.38-.36-4.84-.66-8.22-.58-15.92-2.7-23.11-6.36-7.19-3.65-13.5-8.4-18.92-14.26-5.43-5.84-9.68-12.65-12.76-20.4-3.08-7.75-4.62-16.02-4.62-24.79,0-10.23,1.83-19.96,5.5-29.17,3.67-9.21,8.87-16.89,15.62-23.04,6.16-6.13,13.42-10.74,21.78-13.81,8.36-3.07,17.09-4.61,26.19-4.61,4.11,0,8.36.44,12.76,1.32,4.4.88,8.36,2.05,11.88,3.51,13.2,4.68,24.27,12.43,33.23,23.25,8.95,10.82,13.42,23.99,13.42,39.49,0,10.82-2.5,21.13-7.48,30.92-4.99,9.8-11.44,17.77-19.36,23.91Zm-91.54-50.43c.29,9.13,2.05,17.23,5.28,24.3,3.23,7.07,7.26,12.96,12.1,17.67,4.84,4.71,10.27,8.25,16.28,10.6,6.01,2.36,11.81,3.39,17.38,3.09,6.45-.58,12.69-2.79,18.7-6.62,6.01-3.83,11.29-8.54,15.84-14.14,4.55-5.6,8.07-11.78,10.56-18.55,2.49-6.77,3.45-13.4,2.86-19.88-.88-9.13-3.01-17.38-6.38-24.74-3.38-7.36-7.56-13.55-12.54-18.55-4.99-5.01-10.34-8.76-16.06-11.26-5.72-2.5-11.37-3.75-16.94-3.75-6.46,0-12.54,1.99-18.26,5.96s-10.78,8.98-15.18,15.02c-4.4,6.04-7.78,12.74-10.12,20.1-2.35,7.36-3.52,14.29-3.52,20.77Z"/>
          <path d="m771.78,104.89c2.64.59,5.13,1.47,7.48,2.64,1.76,1.18,3.45,2.86,5.06,5.06,1.61,2.2,2.27,5.21,1.98,9.02-.3,2.35-1.03,4.26-2.2,5.72-.88,1.47-2.13,2.79-3.74,3.96-1.62,1.18-3.74,1.62-6.38,1.32-3.82,0-6.6-.8-8.36-2.42-1.76-1.61-2.94-3.45-3.52-5.5-.88-2.35-1.32-4.84-1.32-7.48-4.4-1.46-8.66-1.61-12.76-.44-3.52.88-7.34,3.01-11.44,6.38-4.11,3.38-7.92,9.02-11.44,16.94v84.5c.88,3.23,2.12,5.72,3.74,7.48,1.61,1.76,3.3,3.08,5.06,3.96,2.05,1.18,4.25,1.91,6.6,2.2v6.16h-46.65v-6.16c2.05-.29,4.11-1.02,6.16-2.2,1.46-.88,3.08-2.2,4.84-3.96,1.76-1.76,3.08-4.11,3.96-7.04v-95.94c-.59-3.81-1.62-6.82-3.08-9.02-1.47-2.2-3.23-4.03-5.28-5.5-2.35-1.46-4.84-2.49-7.48-3.08v-6.16h32.13v24.21c3.52-5.87,9.31-11.29,17.38-16.28,8.07-4.99,17.82-7.77,29.27-8.36Z"/>
          <path d="m891.23,224.15c.58,3.23,1.69,5.72,3.3,7.48,1.61,1.76,3.3,3.23,5.06,4.4,2.05,1.18,4.25,2.06,6.6,2.64v5.72h-32.13v-20.24c-2.94,2.35-6.9,5.06-11.88,8.14-4.99,3.08-11.3,6.09-18.92,9.02-11.74,3.52-21.28,4.99-28.61,4.4-7.34-.59-13.06-2.05-17.16-4.4-4.99-2.64-8.66-6.16-11-10.56-4.11-7.04-5.43-13.42-3.96-19.14,1.46-5.72,4.62-11,9.46-15.84,4.84-4.84,10.78-9.31,17.82-13.42,7.04-4.11,14.23-7.92,21.56-11.44,9.39-4.4,17.89-8.36,25.53-11.88,7.63-3.52,13.35-6.16,17.16-7.92v-2.64c-2.06-5.87-4.7-11-7.92-15.4-2.94-3.81-6.82-7.26-11.66-10.34s-10.93-4.47-18.26-4.18c-7.63.3-14.01,1.32-19.14,3.08-5.14,1.76-9.17,3.82-12.1,6.16-3.52,2.64-6.16,5.43-7.92,8.36,2.64,0,4.62.52,5.94,1.54,1.32,1.03,2.34,2.2,3.08,3.52.73,1.32,1.17,2.64,1.32,3.96.14,1.32.22,2.42.22,3.3,0,1.76-.52,4.33-1.54,7.7-1.03,3.38-4.33,5.06-9.9,5.06s-9.1-2.12-10.56-6.38c-1.47-4.25-1.62-8.87-.44-13.86.29-2.64,1.61-5.94,3.96-9.9,2.34-3.96,5.79-7.77,10.34-11.44,4.55-3.67,10.34-6.89,17.38-9.68,7.04-2.78,15.55-4.18,25.53-4.18s18.11,2.28,24.4,6.82c6.29,4.55,11.15,9.46,14.57,14.74,4,6.16,7,13.2,9,21.13v59.85c0,3.23.07,6.31.22,9.24.14,2.94.36,5.14.66,6.6Zm-17.16-64.69c-2.64.88-6.53,2.42-11.66,4.62-5.14,2.2-10.64,4.92-16.5,8.14-5.87,3.23-11.59,6.82-17.16,10.78-5.58,3.96-10.34,8.29-14.3,12.98-3.96,4.7-6.53,9.61-7.7,14.74-1.18,5.14-.15,10.34,3.08,15.62,3.52,6.16,8.29,9.24,14.3,9.24s12.25-1.39,18.7-4.18c6.45-2.79,12.54-6.31,18.26-10.56,5.72-4.25,10.05-7.55,12.98-9.9v-51.49Z"/>
          <path d="m1036.59,244.4h-49.73v-6.16c2.64-.58,5.13-1.61,7.48-3.08,2.05-1.46,3.89-3.3,5.5-5.5,1.61-2.2,2.71-5.35,3.3-9.46,0-2.05.07-3.74.22-5.06.14-1.32.22-2.42.22-3.3v-61.61c-.3-5.57-1.32-10.56-3.08-14.96-1.47-3.81-3.89-7.26-7.26-10.34-3.38-3.08-8.14-4.62-14.3-4.62-8.51,0-15.77,1.91-21.78,5.72-6.02,3.82-11.37,9.54-16.06,17.16v68.66c0,.88.07,1.98.22,3.3.14,1.32.22,3.01.22,5.06.29,4.11,1.32,7.26,3.08,9.46,1.76,2.2,3.67,4.04,5.72,5.5,2.34,1.47,4.84,2.5,7.48,3.08v6.16h-49.73v-6.16c2.64-.58,5.13-1.61,7.48-3.08,2.05-1.46,3.88-3.3,5.5-5.5,1.61-2.2,2.71-5.35,3.3-9.46,0-2.05.07-4.25.22-6.6.14-2.34.22-7.04.22-14.08V45.91c-.59-.88-1.69-1.39-3.3-1.54-1.62-.14-3.16-.07-4.62.22-1.76.3-3.82.74-6.16,1.32l-3.52-3.96,33.89-18.48v103.86c1.17-2.05,3.08-4.25,5.72-6.6,2.64-2.34,5.79-4.62,9.46-6.82,3.67-2.2,7.7-4.03,12.1-5.5,4.4-1.46,8.95-2.2,13.64-2.2,13.79.3,23.55,4.7,29.27,13.2,5.72,8.51,8.58,18.78,8.58,30.81v61.61c0,.88.07,1.98.22,3.3.14,1.32.22,3.01.22,5.06.29,4.11,1.32,7.26,3.08,9.46,1.76,2.2,3.67,4.04,5.72,5.5,2.34,1.47,4.84,2.5,7.48,3.08v6.16Z"/>
        </g>
        <g>
          <path d="m0,309.7h19.67c12.18,0,20.14,6.09,20.14,16.02,0,6.74-4.03,12.27-12.18,14.24,10.21,1.78,15.55,8.06,15.55,16.21,0,10.77-7.96,17.24-20.23,17.24H0v-63.7Zm3.65,3v26.23h15.92c10.12,0,16.49-5.15,16.49-13.11s-6.46-13.11-16.49-13.11H3.65Zm0,29.23v28.48h19.2c10.12,0,16.58-5.62,16.58-14.33s-7.21-14.14-18.55-14.14H3.65Z"/>
          <path d="m111.37,309.7h41.31v3h-37.66v26.13h34.28v3h-34.28v28.57h37.66v3h-41.31v-63.7Z"/>
          <path d="m261.95,355.13h-34l-7.49,18.27h-3.56l26.04-63.7h4.21l26.14,63.7h-3.84l-7.49-18.27Zm-32.79-3h31.57l-14.24-34.75-1.5-4.03-1.59,4.12-14.24,34.66Z"/>
          <path d="m359.14,374.24c-14.8,0-23.98-9.55-23.98-25.1v-39.44h3.65v39.44c0,13.77,7.68,22.2,20.33,22.2s20.42-8.52,20.42-22.29v-39.34h3.65v39.34c0,15.55-9.27,25.2-24.07,25.2Z"/>
          <path d="m472.16,312.79h-23.32v-3.09h50.4v3.09h-23.42v60.61h-3.65v-60.61Z"/>
          <path d="m585.96,348.76l-23.51-39.06h4.12l18.36,30.35,3,5.43,3-5.43,18.45-30.35h3.84l-23.6,39.06v24.64h-3.65v-24.64Z"/>
          <path d="m756.52,309.7h3.65v29.13h39.72v-29.13h3.65v63.7h-3.65v-31.47h-39.72v31.47h-3.65v-63.7Z"/>
          <path d="m898.66,374.24c-14.8,0-23.98-9.55-23.98-25.1v-39.44h3.65v39.44c0,13.77,7.68,22.2,20.33,22.2s20.42-8.52,20.42-22.29v-39.34h3.65v39.34c0,15.55-9.27,25.2-24.07,25.2Z"/>
          <path d="m993.83,309.7h19.67c12.18,0,20.14,6.09,20.14,16.02,0,6.74-4.03,12.27-12.18,14.24,10.21,1.78,15.55,8.06,15.55,16.21,0,10.77-7.96,17.24-20.23,17.24h-22.95v-63.7Zm3.65,3v26.23h15.92c10.12,0,16.49-5.15,16.49-13.11s-6.46-13.11-16.49-13.11h-15.92Zm0,29.23v28.48h19.2c10.12,0,16.58-5.62,16.58-14.33s-7.21-14.14-18.55-14.14h-17.24Z"/>
        </g>
      </g>
      <path d="m313.17,60.41c-2.91,4.47-6.87,7.48-11.87,9.03-7.83,2.42-15.49,1.92-22.98-1.49-5.85-2.56-10.67-5.5-14.45-8.82-.87,2.46-1.7,4.84-2.48,7.13-.91,2.69-1.55,5.4-1.9,8.12-.51,5.31.52,9.84,3.09,13.61.64.94,1.19,1.53,1.63,1.78,1.01-.14,1.8-.4,2.36-.78,1.75-1.47,3.12-2.61,4.08-3.41.97-.8,1.64-1.33,2.02-1.59,2.07-1.41,4.34-2.13,6.8-2.16,3.98-.23,7.25,1.53,9.82,5.29,1.67,2.44,2.43,5.37,2.27,8.79-.34,3.54-2.49,6.66-6.44,9.35-4.32,2.95-9.05,3.7-14.19,2.24-5.13-1.46-9.17-4.35-12.12-8.68-4.62-6.77-6.41-14.24-5.36-22.4.72-6.35,2.1-11.82,4.16-16.41-2.61-.11-5.12-.19-7.55-.27-2.84-.08-5.62.11-8.32.58-5.23,1.08-9.25,3.4-12.09,6.96-.71.89-1.11,1.59-1.22,2.08.43.92.91,1.6,1.45,2.02,1.93,1.24,3.41,2.21,4.46,2.9,1.05.69,1.76,1.18,2.11,1.46,1.96,1.56,3.32,3.51,4.07,5.86,1.39,3.73.68,7.38-2.16,10.94-1.84,2.31-4.42,3.9-7.72,4.77-3.48.72-7.1-.41-10.84-3.39-4.1-3.26-6.21-7.56-6.32-12.89-.12-5.33,1.45-10.05,4.71-14.15,5.11-6.41,11.71-10.32,19.82-11.73,6.28-1.19,11.91-1.47,16.91-.86-.66-2.52-1.32-4.95-1.97-7.29-.76-2.74-1.76-5.33-3.01-7.78-2.57-4.67-5.97-7.84-10.22-9.5-1.06-.41-1.84-.59-2.35-.55-.75.68-1.26,1.34-1.51,1.98-.62,2.21-1.1,3.91-1.45,5.12-.35,1.21-.61,2.03-.77,2.45-.91,2.33-2.38,4.2-4.4,5.61-3.15,2.43-6.85,2.82-11.09,1.16-2.75-1.08-5.03-3.07-6.83-5.97-1.72-3.11-1.7-6.9.04-11.35,1.91-4.88,5.39-8.16,10.46-9.85,5.06-1.69,10.03-1.58,14.91.33,7.63,2.99,13.32,8.15,17.05,15.48,2.94,5.57,4.87,10.8,5.78,15.7,1.98-1.45,3.89-2.86,5.72-4.23,2.27-1.71,4.32-3.59,6.15-5.64,3.41-4.1,5.12-8.42,5.12-12.98,0-1.14-.12-1.93-.34-2.39-.91-.45-1.71-.68-2.39-.68-2.28.23-4.04.4-5.29.51-1.25.12-2.11.17-2.56.17-2.51,0-4.78-.68-6.83-2.05-3.41-2.05-5.12-5.35-5.12-9.91,0-2.96,1.02-5.81,3.07-8.54,2.27-2.73,5.81-4.1,10.59-4.1,5.23,0,9.56,2.05,12.98,6.15,3.42,4.1,5.13,8.77,5.13,14,0,8.2-2.73,15.37-8.2,21.52-4.17,4.84-8.4,8.57-12.69,11.21,2.09,1.56,4.12,3.05,6.08,4.48,2.3,1.67,4.7,3.07,7.2,4.21,4.92,2.05,9.56,2.41,13.91,1.07,1.09-.33,1.81-.68,2.18-1.03.16-1,.15-1.83-.05-2.49-.89-2.11-1.58-3.75-2.05-4.91-.48-1.16-.79-1.96-.92-2.4-.74-2.4-.76-4.77-.06-7.13.95-3.87,3.6-6.47,7.95-7.82,2.82-.87,5.85-.73,9.07.42,3.28,1.37,5.63,4.34,7.04,8.91,1.55,5,.86,9.74-2.05,14.22Z"/>
    </g>
  </g>
</svg>