<?xml version="1.0" encoding="UTF-8"?>
<svg id="Layer_2" data-name="Layer 2" xmlns="http://www.w3.org/2000/svg" viewBox="0 0 1314.72 322.08">
  <g id="Layer_1-2" data-name="Layer 1">
    <g>
      <path d="m388.14,190.54c-7.27-2.72-14.7-3.24-22.15-2.68-1.86.02-6.28.71-7.97.96-2.56.56-5.33,1.1-7.81,1.94-11.25,3.36-20.46,9.35-28.53,16.72-3.52-5.37-7.28-10.61-11.47-15.51-4.38-5.17-9.09-10.26-14.09-15.2,3.58-2.85,7.06-5.83,10.43-8.89,18.66-17.02,34.63-39.37,36.94-65.22,2.54-28.46-12.84-55.28-36.07-70.83-13.64-9.27-30.22-14.27-46.59-14.79-44.33-1.85-83.02,30.6-100.93,69.15-5.43,11.67-9.05,24.28-10.57,37.09-.15,1.23-.27,2.46-.38,3.69-4.15,1.59-8.29,3.48-12.18,5.49-9.19,4.81-17.87,10.81-25.69,17.61-7.99,7.01-15.25,14.89-21.58,23.45-22.4-1.44-45.03,1.66-67.18-1.51-.94-.16-3.33-.57-4.25-.73-1.1-.25-3.01-.67-4.23-.95-4.73-1.18-9.33-2.78-13.84-4.69,3.89,3.12,8.03,5.95,12.42,8.33l2.69,1.38,1.35.69c.46.22.92.42,1.38.63l2.78,1.25c18.16,7.68,37.98,10.08,56.85,14.86-6.93,13.34-11.7,27.78-13.75,42.78-1.95,15.98-1.89,32.9,6.43,47.42,8.82,15.5,26.82,23.35,44.19,21.98,17.07-1.23,32.01-10.86,43.39-22.82,16.7-17.45,28.05-39.97,31.97-63.77,8.14-.24,16.25-1.62,24.24-3.29,2.12-.44,7.51-1.7,9.68-2.15,3.09-.75,6.49-1.79,9.58-2.61,9.38-2.91,18.75-6.55,27.58-10.92,7.81,7,14.98,14.64,21.33,22.65,4.27,5.58,8.14,11.81,11.97,18.17-3.7,4.89-7.41,9.7-11.3,14.23-1,1.19-2.61,2.84-3.68,4-11.44,12.24-25.83,19.11-42.94,18.63-7.58-.1-15.32-1.4-22.95-3.43,6.84,3.95,14.2,7.22,22.13,9.31,30.53,7.96,52.14-6.46,71.29-22.73.31.46.63.92.95,1.37,20.23,28.38,60.95,28.3,86.45,7.1,9.82-8.02,17.28-19.22,19.26-31.87,3.36-19.48-6.17-39.33-25.15-46.29Zm-256.7,59.9c-5.75,6.54-10.79,11.37-17.9,13.5-2.49.6-5.73.64-7.75-.95-.92-1.08-1.26-2.27-1.8-4.88-.39-2.14-.58-4.92-.52-7.99.11-12.68,3.53-24.96,9.12-36.4,1.54-3.11,3.23-6.16,5.08-9.13,10.42,3.19,20.91,6.25,31.53,8.66-2.53,13.66-8.79,26.63-17.76,37.19Zm9.96-72.58c2.68-2.11,5.47-4.08,8.37-5.87.12,1.62.23,3.23.34,4.84.03.51.06,1.02.09,1.52-2.95-.12-5.88-.29-8.8-.49Zm62.5-2.67c-4.23.61-8.56.76-12.81,1.21-.05,0-.11.01-.16.01-.04-.75-.09-1.49-.14-2.23-.24-3.92-.54-7.8-.81-11.65,4.35.61,8.69,1.61,12.95,2.88,5.61,1.76,11.14,3.91,16.56,6.42-5.13,1.41-10.3,2.78-15.59,3.36Zm59.88-25.03c-22.16-15.01-47.17-25.79-72.95-28.52,6.23-31.15,35.08-65.14,68.63-63.85,8.31.3,16.48,2.44,23.52,6.78,9.72,5.93,17.44,15.55,19.58,26.7.07.87.24,1.7.34,2.57l.05,1.71.05.85c.03.28-.03.59-.04.88-.03.59-.06,1.19-.08,1.78l-.24,1.8-.11.91c-.46,2.19-.94,4.35-1.76,6.45-5.59,15.46-21.07,30.6-36.99,41.94Zm109.29,79.99c-.09.49-.21,1.06-.44,1.58-.79,2.01-2.4,3.56-3.95,5.04-6.1,5.24-15.55,8.25-23.23,5.01-1.53-.67-2.76-1.63-3.85-2.83-1.02-1.16-2.26-3.07-3.28-4.62,5.9-3.73,11.94-6.45,18.31-7.48.93-.14,1.89-.15,2.83-.28.81.01,1.9-.01,2.8-.01,1.25.14,2.51.13,3.75.39,2.45.24,5.28,1.18,7.14,2.48,0,.21-.03.45-.08.72Zm0-1.08c-.13-.25-.09-.55-.08-.55.09-.09.18.21.17.72-.03-.05-.08-.1-.09-.17Z"/>
      <g>
        <path d="m714.28,221.81c0,2.25-1.03,5.02-3.57,9.57-2.04,3.64-4.51,7.62-7.35,11.82-2.81,4.17-5.89,8.47-9.14,12.77-3.36,4.44-6.25,7.96-8.84,10.76-5.4,5.63-10.98,9.31-16.65,11-2.73.81-5.41,1.22-7.99,1.22-3.04,0-5.99-.56-8.78-1.68-3.59-1.44-6.74-3.72-9.41-6.82-2.55,4.31-5.31,8.13-8.24,11.4-4.87,5.43-10.14,9.53-15.66,12.18-4.13,1.97-8.14,2.97-11.93,2.97-1.73,0-3.44-.21-5.08-.62-5.41-1.35-9.92-4.85-13.4-10.4-3.29-5.24-5.11-12.47-5.56-22.1-.22-3.4-.22-7.2,0-11.2.21-3.95.69-8.54,1.44-13.62.72-4.96,1.72-10.77,2.98-17.27.91-4.73,2.01-10.07,3.27-15.95-2.33,4.83-4.47,9.93-6.36,15.19-2.61,7.22-5.06,15.59-7.28,24.88-1.05,4.18-1.98,7.9-2.8,11.2-1.17,4.65-1.76,6.24-2.19,7.11-1.34,2.95-3.77,5.25-7.04,6.65-2.79,1.2-5.75,1.8-8.79,1.8s-6.14-.68-8.97-2.04c-4.22-2-6-4.99-6.74-7.18-.88-2.41-1.11-5.95-.74-11.45.31-4.75.95-10.51,1.89-17.11.95-6.62,2.27-14.02,3.93-22,1.26-6.08,2.66-12.41,4.16-18.9-.61,1.36-1.21,2.72-1.8,4.1-2,4.59-3.62,8.73-4.8,12.29-.63,1.87-1.46,4.32-2.5,7.33-1.03,2.98-2.11,6.17-3.24,9.55-1.13,3.4-2.31,7.01-3.55,10.81-1.23,3.81-2.36,7.36-3.39,10.64-2.31,6.93-4.2,12.44-5.64,16.46-1.59,4.42-3.06,7.68-4.51,9.97-1.75,2.78-3.62,4.64-5.71,5.68-1.93.97-4.25,1.46-6.88,1.46-7.82,0-13.66-4-16.45-11.27-1.84-4.8-2.94-12.39-3.3-23.05-1.45,1.48-2.95,2.97-4.52,4.44-5.86,5.55-12.3,10.63-19.13,15.11-7.02,4.61-13.97,7.85-20.66,9.64-3.16.84-6.27,1.27-9.25,1.27-3.81,0-7.49-.7-10.94-2.08-6.48-2.59-11.49-8.34-14.89-17.08-.02-.05-.03-.1-.05-.15-1.49-4.22-1.99-9.25-1.51-15.37.44-5.75,1.72-11.88,3.8-18.22,2.03-6.21,4.79-12.71,8.21-19.32,3.42-6.64,7.44-12.95,11.96-18.75,3.29-4.4,7.35-8.51,12.01-12.17,4.54-3.58,9.18-6.61,13.78-9.02,4.81-2.52,9.56-4.15,14.11-4.85,1.59-.25,3.11-.37,4.53-.37,3.12,0,5.88.59,8.23,1.77,2.72,1.36,6.2,4.32,7.33,10.73.78,4.43-.1,10.04-2.7,17.15-4.21,10.85-9.56,19.42-15.95,25.58-5.94,5.74-13.52,10.04-22.54,12.78-1.54,3.83-2.74,7.14-3.56,9.86-.99,3.23-1.84,6.58-2.53,9.94-.57,2.77-.68,5.1-.32,6.75.01.04.02.07.02.11.67-.12,2.63-.68,6.77-3.38,2.72-1.75,6.14-4.38,10.18-7.83,4.11-3.51,8.3-7.18,12.45-10.91,4.02-3.62,7.64-7.09,10.75-10.3,3.47-3.57,4.71-5.22,5.15-5.9.12-1.47.26-2.91.41-4.33.43-3.99,1.09-7.94,1.96-11.73.82-3.62,1.76-7.62,2.8-11.97,2-7.79,3.86-13.22,5.72-16.69,2.22-4.18,5.2-6.94,8.84-8.21,2.83-1.16,5.33-1.73,7.63-1.73.27,0,.52.01.78.02,2.75.17,5.38,1.18,7.82,3,.07.06.14.11.21.17,2.12,1.78,3.38,3.64,3.84,5.69.23,1.07.42,2.75-.21,9.46-.22,2.36-.64,6.01-1.26,10.86-.32,2.51-.64,4.98-.96,7.41,4.21-10.13,8.19-18.69,11.89-25.59,5.8-10.85,11.48-18.65,17.36-23.85,3.78-3.32,7.69-5,11.65-5,3.35,0,6.59,1.2,9.62,3.57.16.12.31.26.45.4.71.71,1.35,1.41,1.9,2.09,1.08,1.35,1.68,3.09,1.87,5.36.12,1.42.17,3.38.17,6v10.23c0,4.8-.1,9.89-.29,15.14,1.13-1.84,2.35-3.76,3.64-5.76,2.79-4.34,5.17-7.94,7.06-10.68.03-.03.05-.06.07-.09,1.67-2.3,2.98-4.08,3.92-5.33,1.23-1.64,2.42-2.88,3.63-3.79,1.35-1.01,2.78-1.72,4.26-2.09,1.21-.3,2.55-.45,4.11-.46,1.06-.08,1.97-.12,2.79-.12,1.74,0,3.05.19,4.13.59,1.81.68,3.43,2.08,5.1,4.4.05.08.11.16.16.24,2.06,3.25,2.87,8.94,2.63,18.45-.21,8.27-1.36,20.57-3.44,36.55-.64,6.22-1.19,12-1.69,17.68-.5,5.74-.81,11.15-.91,16.08-.1,4.97-.1,9.37,0,13.09.03,1,.06,1.87.11,2.62,2.44-2.97,5.06-6.55,7.76-10.66,2.93-4.44,5.74-9.04,8.34-13.65.72-1.27,1.37-2.48,1.96-3.6,0,0,.01-.01,0-.02.12-4.18.56-8.79,1.32-13.74,1.05-6.82,2.39-13.49,3.97-19.81,1.59-6.36,3.37-12.13,5.29-17.16,2.27-5.9,4.61-9.54,7.37-11.43,3.03-2.22,6.06-3.35,8.98-3.35,2.56,0,4.94.83,7.07,2.46,1.37.96,2.36,2.16,2.93,3.55.48,1.23.67,2.66.67,4.83,0,1.69-.22,4.05-.67,7.21-.39,2.76-.89,6.67-1.53,11.98-.01.04-.01.08-.02.12-2.85,19.71-4.34,34.4-4.44,43.64-.04,4.05.15,6.74.39,8.49.22-.19.45-.4.7-.62,3.24-2.94,6.87-6.46,10.78-10.48,3.88-3.98,7.75-8.3,11.5-12.86,3.65-4.44,6.37-8.14,8.09-11.01,2.01-3.21,5.16-7.39,9.86-7.39,7.57,0,7.79,5.6,7.79,6.24Z"/>
        <path d="m699.24,148.11c-.18,2.48-1.41,5.17-3.88,8.47-5.31,7.54-13.13,11.36-23.26,11.36-2.25,0-4.42-.11-6.44-.34-2.23-.24-3.85-.64-5.11-1.26-2.61-.87-4.81-2.84-6.55-5.85-1.59-2.04-2.39-4.13-2.39-6.23,0-1.65.46-3.66,1.48-6.5.5-1.69,1.27-3.59,2.3-5.65,1.05-2.09,2.17-3.99,3.35-5.63,1.87-2.67,3.37-4.29,4.82-5.2,1.66-1.04,3.85-1.54,6.68-1.54,2.23,0,4.65.31,7.2.91,2.3.55,4.63,1.22,6.93,1.98,2.44.82,4.67,1.76,6.65,2.81,2.47,1.31,4.12,2.59,5.22,4.04.03.05.07.1.1.15,2.14,3.06,3.09,5.84,2.9,8.48Z"/>
      </g>
      <path d="m1302.91,204.33c-.93,0-1.95.03-3.03.08-6.59.32-17.08,1.5-32.06,3.61-.05,0-1.97.32-1.97.32l-5.51-11.74c-.92-1.96-1.77-3.83-2.55-5.59.55.2,1.13.31,1.74.31h2.78c2.94,0,5.94-1.69,9.74-5.49,2.96-2.97,5.82-6.73,8.5-11.19,2.63-4.39,4.86-9.19,6.63-14.25,1.91-5.51,2.51-10.79,1.77-15.71-.82-5.49-3.69-10.05-8.53-13.54-4.64-3.35-11.47-4.97-20.89-4.97-12.07,0-21.86,3.67-29.1,10.91-7.11,7.11-11.29,16.42-12.45,27.72-.23,2.56-.23,5.16,0,7.71.23,2.56.75,5.35,1.55,8.29.77,2.89,1.88,6.11,3.29,9.57,1.37,3.36,3.12,7.29,5.21,11.69,1.84,4.09,3.48,7.78,4.91,11.05.21.46.39.89.56,1.28-5.64,1.34-10.76,3.31-15.2,5.86-4.53,2.61-8.42,5.63-11.55,8.99-3.23,3.48-5.61,7.28-7.08,11.3-.47,1.29-.82,2.59-1.06,3.9-1.49,1.77-3.04,3.53-4.64,5.27-2.25,2.45-4.27,4.47-5.99,6-5.26,4.67-9.69,8-13.15,9.87-2.31,1.25-4.5,1.88-6.51,1.88-.47,0-.94-.03-1.39-.1-2.67-.39-5.71-1.85-9.05-4.33-3.96-2.94-8.82-6.88-14.45-11.72l-.32-.27c7.58-3.73,14.14-9.32,19.53-16.68,5.96-8.12,10.57-16.97,13.72-26.3,3.14-9.32,4.85-18.57,5.06-27.51.23-9.45-1.19-16.82-4.34-22.52-3.32-6-8.49-9.16-14.95-9.16-.65,0-1.31.03-1.99.09-6.67.65-14.39,5.75-23.57,15.61-.33.33-.66.66-.99,1l1.5-6.26,11.89-6.35c5.1-2.55,9.64-5.14,13.5-7.72,3.86-2.57,7.53-5.36,10.89-8.29,3.43-2.99,6.66-6.39,9.62-10.11,2.85-3.59,5.89-7.75,9.07-12.42,4.33-6.5,7.59-12.69,9.68-18.41,2.1-5.77,3.4-11.63,3.85-17.44.03-.36.02-.71-.03-1.07-2.26-16.49-6.48-27.15-12.88-32.57-3.91-3.3-8.27-4.98-12.98-4.98-3.57,0-7.32.99-11.13,2.96-7.74,3.98-15.68,11.27-24.27,22.28-8.23,10.55-16.12,23.34-23.46,38.02-7.31,14.61-13.97,30.89-19.79,48.38-5.52,16.54-9.7,33.39-12.42,50.17-.01.01-.01.02-.01.02-.53,1.16-1.03,2.64-1.57,4.6-.01.07-.03.13-.05.2-.54,2.35-1.63,5.38-3.25,8.99-1.73,3.87-3.67,7.91-5.78,12.01-2.08,4.08-4.41,8.17-6.91,12.17-1.28,2.05-2.52,3.97-3.73,5.77.03-.44.06-.88.1-1.35.39-5.26,1.2-11.28,2.41-17.91,1.22-6.72,2.71-13.77,4.43-20.96,1.72-7.16,3.61-13.97,5.62-20.19,1.45-4.37,2.57-7.87,3.31-10.41.91-3.14,1.27-5.48,1.11-7.4-.3-3.45-2.48-5.99-5.72-6.65-1.39-.27-3.12-.4-5.31-.4-2.96,0-5.79.97-8.31,2.81-2.19-4.53-5.43-7.7-9.64-9.41-3.11-1.27-6.45-1.91-9.92-1.91-1.04,0-2.11.06-3.19.17-4.43.49-8.84,1.87-13.1,4.12-4.2,2.22-7.78,4.91-10.68,8.05-3.99,4.43-7.83,10.21-11.42,17.16-2.38,4.62-4.46,9.44-6.2,14.4.53-5.88.52-11.64-.02-17.24-.89-9.08-3.16-17.11-6.77-23.89-3.15-5.82-7.23-11.1-12.15-15.69-3.78-3.52-7.53-6.21-11.17-8.05,1.45-1.27,3.06-2.67,4.81-4.17.05-.04.09-.07.13-.11,10.05-9.2,18.05-19.06,23.76-29.3,5.74-10.27,9.47-20.57,11.11-30.6,1.65-10.15,1.31-19.81-1.03-28.72-2.39-9.09-6.79-16.89-13.08-23.18-6.32-6.32-14.51-10.72-24.36-13.1-4.38-1.06-9.12-1.59-14.11-1.59-6.05,0-12.65.79-19.51,2.33-10.79,2.2-21.29,6.97-31.22,14.17-9.72,7.05-18.65,15.65-26.54,25.57-7.86,9.88-14.54,20.81-19.85,32.49-5.32,11.71-8.99,23.49-10.91,35.02-1.96,11.72-1.9,22.91.18,33.26,2,10.02,6.47,18.64,13.3,25.67-4.99,1.81-9.95,4.52-14.76,8.05-4.92,3.6-9.66,7.96-14.1,12.94-4.41,4.95-8.6,10.6-12.45,16.81-3.86,6.22-7.13,12.76-9.67,19.33-2.47,6.05-3.95,12.51-4.39,19.22-.44,6.58-.11,13.18.99,19.61,1.1,6.51,3.06,12.79,5.83,18.65,2.79,5.92,6.38,11.21,10.67,15.73,5.17,5.4,12.16,10.09,20.77,13.96,8.4,3.77,17.56,6.44,27.21,7.96,2.25.44,4.66.72,7.15.84,2.1.09,3.81.24,5.09.42.24.03.47.05.71.05,2.22,0,4.95-.16,8.11-.49,3.17-.33,6.28-.83,9.25-1.49,2.97-.66,5.58-1.4,7.77-2.2,1.7-.63,6.21-2.3,6.21-6.71,0-1.55-.64-6.63-8.95-6.63-2.7,0-6.36.46-11.19,1.4-2.41.4-4.36.7-5.81.9-1.35.17-2.64.26-3.84.26s-2.49-.09-3.83-.26c-1.47-.2-3.45-.5-5.9-.91-17.48-2.85-28.75-9.57-34.44-20.54-2.28-4.77-3.97-9.68-5.01-14.6-1.06-5.01-1.59-11.02-1.59-17.87,0-7.21.68-13.64,2.02-19.11,1.33-5.4,3.97-11.58,7.85-18.38.02-.03.04-.06.06-.09,4.92-9.06,9.86-16.21,14.7-21.24,4.69-4.87,10.73-8.98,17.98-12.23,2.37-1.08,4.4-2.06,6.01-2.93,2.31-1.22,3.91-2.32,4.76-4.03.11-.22.21-.45.28-.69.7-2.11.52-5.27-4.26-8.27-.22-.13-.45-.26-.69-.36-1.6-.68-3.25-2.88-4.64-6.18-1.83-4.32-3.29-9.2-4.35-14.53-1.09-5.41-1.79-10.85-2.08-16.18-.29-5.15-.16-9.23.39-12.18,2.58-14.65,7.34-28.3,14.17-40.57,6.84-12.3,14.81-22.79,23.69-31.18,8.77-8.28,18.01-14.29,27.46-17.86,5.17-1.95,10.12-2.94,14.72-2.94,3.27,0,6.46.5,9.47,1.49,5.16,2.64,8.82,6.02,11.19,10.33,2.48,4.52,3.78,9.58,3.87,15.03.1,5.79-.78,12.04-2.6,18.56-1.87,6.66-4.45,13.17-7.67,19.32-3.28,6.26-6.96,12.2-10.93,17.66-3.92,5.39-7.96,9.98-12.01,13.64-.03.03-.06.05-.08.08-1.81,1.71-3.59,3.19-5.33,4.43.46-1.54.95-3.17,1.46-4.91,1.46-4.6,2.92-9.36,4.35-14.14,1.46-4.91,2.73-9.64,3.79-14.06,1.03-4.34,1.93-8.35,2.67-11.92.76-3.73,1.25-6.75,1.47-9.16.6-5.74.51-7.54.14-8.88-.74-2.55-2.88-4.29-6.38-5.17-.03,0-.06,0-.09-.02-1.26-.29-2.49-.44-3.64-.44-2.66,0-5.01.75-6.99,2.24-2.46,1.84-4.56,5.08-6.58,10.13-3.11,7.48-6.31,15.39-9.49,23.49-3.04,7.76-6.07,15.54-8.99,23.12-2.87,7.43-5.22,13.76-7.18,19.34-1.94,5.52-3.27,9.55-3.94,11.99-1.08,3.25-2.08,7.1-3.05,11.74-.96,4.56-1.63,8.34-2.06,11.53l-1.63,8.61-2.94,1.14c-5.52,2.07-10.91,5.48-16.02,10.13-4.98,4.54-9.36,9.92-13,16-3.61,6-6.53,12.57-8.7,19.51-2.2,7.04-3.32,14.09-3.32,20.96-.23,10.32,2.12,19.02,6.95,25.87,4.73,6.69,10.92,11.83,18.41,15.29,7.29,3.36,15.65,5.23,24.85,5.57,1.09.04,2.17.06,3.26.06,7.93,0,15.93-1.07,23.78-3.18,8.89-2.38,17.5-6.06,25.6-10.92,8.2-4.92,15.26-10.98,21-18.04,6.24-7.75,11.48-16.48,15.57-25.94,1.63-3.79,3.1-7.61,4.38-11.43-.08,1.01-.14,2.03-.18,3.04-.34,7.96.89,15.06,3.66,21.11,1.77,4.26,4.42,7.79,7.87,10.47,3.5,2.73,7.46,4.37,11.77,4.89,1.1.14,2.22.2,3.33.2,3.04,0,6.13-.5,9.18-1.49,3.22-1.04,6.24-2.69,9.01-4.93,1.18,8.52,3.64,13.85,7.66,16.66,2.52,1.77,5.29,2.66,8.23,2.66,2.37,0,4.83-.6,7.31-1.77,4.56-2.16,9.13-5.93,13.6-11.2,2.96-3.49,5.66-7.23,8.05-11.19v.68c0,6.45.32,12.58.96,18.22.66,5.84,1.79,11.02,3.36,15.38,1.89,5.28,4.83,8.89,8.73,10.72,2.56,1.26,5.44,1.9,8.58,1.9.3,0,.6-.01.92-.02,3.27-.13,6.45-.83,9.47-2.08.13-.06.27-.12.4-.19,1.54-.81,6.22-3.27,6.18-7.98-.02-2.04-.96-4.93-5.34-7.12l-.16-.08.43-8c.41-3.12.72-6.35.93-9.59.05-.66.09-1.26.13-1.81l1.64,1.53c5.81,5.59,12.08,10.5,18.64,14.59,6.78,4.21,13.79,7.09,20.85,8.55,3.05.63,6.16.95,9.25.95,4.26,0,8.61-.61,12.92-1.8,7.53-2.09,14.79-6.59,21.57-13.37.02-.03.05-.05.07-.07,1.15-1.2,2.28-2.43,3.37-3.68.79.73,1.63,1.41,2.51,2.07,5.36,3.96,11.55,6.56,18.4,7.72,2.8.48,5.65.71,8.47.71,3.95,0,7.96-.46,11.94-1.39,7.05-1.65,13.09-4.83,17.96-9.46,5-4.76,8.26-11.21,9.68-19.16,1.24-6.9.18-14.95-3.12-23.93,2.83-.63,7.64-1.6,14.4-2.89,5.93-1.23,10.55-2.16,13.72-2.77,3.29-.64,5.58-1.11,7-1.43,2.09-.49,2.8-.7,3.42-1.02,1.93-.96,3.08-2.92,3.08-5.25,0-4.7-3.97-7.09-11.81-7.09Zm-154.75-83.63c1.38-4.06,2.54-7.38,3.51-10.07,2.19-5.78,4.82-11.71,7.83-17.63,3.01-5.91,5.73-10.81,8.11-14.58,2.14-3.21,3.72-5.15,4.8-6.31.08,2.04-.15,5.24-1.19,10.15-1.16,5.54-3.15,11.58-5.89,17.96-2.76,6.38-6.35,12.82-10.69,19.13-2.9,4.23-6.15,8.03-9.7,11.36.95-3.18,2.03-6.54,3.22-10.01Zm-215.97,138.45c-6.88,6.21-14.06,10.25-21.36,12.01-2.98.72-5.83,1.08-8.47,1.08-3.62,0-6.99-.68-10.03-2.03-5.19-2.29-9.13-6.5-12.04-12.85-2.95-6.44-3.51-15.09-1.66-25.73.57-2.43,1.43-5.2,2.57-8.23,1.17-3.12,2.55-6.23,4.1-9.22,1.54-2.99,3.2-5.77,4.93-8.28,1.39-2.01,2.78-3.68,4.13-5,.5,1.61,1.21,2.91,2.14,3.94,1.94,2.16,4.93,3.21,9.14,3.21,3.03,0,7.34-.35,9.8-3.43,1.49-1.86,2.36-4.66,2.91-9.32.07-.54.13-1.07.19-1.58,2.58.91,5.66,2.84,9.16,5.74,3.55,2.95,5.94,6.29,7.28,10.13.69,2.06,1.13,4.6,1.31,7.55.19,3.18.19,6.26,0,9.13-.19,2.8-.56,5.31-1.1,7.49-.4,1.57-.69,2.31-.82,2.59-1.52,1.54-4.35,4.69-2.54,8.25,1.67,3.43,5.67,3.43,7.59,3.43.41,0,.81-.05,1.21-.15.61-.16,1.21-.34,1.79-.56-3.18,4.59-6.6,8.54-10.23,11.83Zm28.6-67.8s-.01.08-.02.12c-.85,9.98-2.45,19.06-4.78,27.18-.04-1.38-.14-2.78-.29-4.21-.81-7.47-3.53-14.78-8.07-21.72-4.78-7.27-11.84-12.39-21-15.21-.21-.06-.43-.11-.65-.15-1.12-.19-2.11-.35-2.95-.5.06-.24.14-.5.24-.8.72-2.26,1.8-5.58,3.21-9.79,1.58-4.54,3.07-8.27,4.43-11.09.75-1.56,1.26-2.54,1.59-3.16.44-.14,1.05-.33,1.85-.57,2.26-.68,4.71-1.57,7.23-2.63,2.05-.82,3.87-1.23,5.4-1.23,1.65,0,2.96.48,4.09,1.52,2.97,2.71,5.27,6.49,6.84,11.22,1.71,5.11,2.72,10.71,3.01,16.63.29,6.1.25,10.94-.13,14.39Zm90.56-3.94s-.05.1-.07.15c-.32.79-.9,2.42-2.61,7.98-1.25,4.03-2.51,8.29-3.73,12.59-1.19,3.95-2.36,7.5-3.47,10.55-1.06,2.89-2.23,5.56-3.46,7.94-1.23,2.35-2.61,4.59-4.1,6.65-1.53,2.1-3.4,4.35-5.47,6.62-1.62,1.7-2.85,2.91-3.76,3.76-1.42-3.58-2.05-8.22-1.87-13.79.19-6.29.99-12.88,2.38-19.6,1.37-6.7,3.32-13.19,5.78-19.28,2.39-5.92,4.95-10.6,7.62-13.92,1.92-2.39,3.75-3.75,5.16-3.86.27.15,1.68,1.13,3.56,5.51.68,1.56,2.16,4.95,4.82,6.76-.19.52-.44,1.16-.78,1.94Zm87,35.1c-3.81,5.04-7.72,9.01-11.62,11.8-.05.04-.11.08-.16.12-.18.14-.37.28-.56.41,1.65-3.96,3.66-8.46,5.98-13.39,2.44-5.17,5.01-10.31,7.64-15.28,2.62-4.94,4.76-8.75,6.31-11.28,1.38-2.17,3.04-4.58,4.93-7.17,1.93-2.63,3.75-5.01,5.43-7.09.36-.44.72-.88,1.07-1.29-.16,2.7-.73,5.77-1.71,9.16-1.66,5.78-3.99,11.63-6.93,17.4-2.95,5.8-6.44,11.39-10.38,16.61Zm102.99,33.96c-1.46,1.3-2.99,1.9-4.79,1.9-.24,0-.5-.01-.75-.03-2.5-.22-4.84-1.27-7.16-3.2-2.21-1.84-3.53-3.95-4.03-6.44-.45-2.26.21-4.67,2.03-7.37,1.37-2.02,4.84-5.14,13.57-8.5.39-.14.76-.28,1.11-.4.32,1.18.62,2.5.9,3.93.4,2.13.75,4.24,1.05,6.29.34,2.4.41,3.72.41,4.4,0,6.4-1.47,8.65-2.34,9.42Zm13.6-72.14c-1.34-3.32-2.35-6.13-3.01-8.4-1.25-4.29-1.72-8.21-1.38-11.66.72-5.52,2.2-9.91,4.39-13.03,2.64-3.76,4.44-4.52,5.09-4.67h.03c.15.12.56.51,1.09,1.5.56,1.05,1.7,4.48.24,13.68-.4,2.79-.95,5.79-1.63,8.94-.66,2.96-1.33,5.24-2.02,6.79-.02.04-2.8,6.85-2.8,6.85Z"/>
      <path d="m800.54,260.27c-4.89,5.19-11.64,9.25-19.02,11.44-4.42,1.37-9.24,2.07-14.3,2.07-2.7,0-5.45-.21-8.18-.61-2.42-.32-4.75-.85-7-1.35-1.91-.43-3.71-.84-5.55-1.12-3.34-.53-6.76-.78-10.47-.78-9.79,0-19.52,1.77-29.83,3.65-2.58.47-5.17.94-7.77,1.38-.2.04-.4.05-.6.05-1.37,0-2.64-.79-3.23-2.06-.67-1.46-.28-3.19.95-4.22,11.03-9.23,24.8-15.14,38.77-16.65,2.14-.22,4.25-.33,6.31-.33,2.98,0,5.92.23,8.73.68,3.04.45,5.88,1.23,8.62,1.99,1.51.42,2.94.81,4.39,1.15.03.01.05.01.08.02,4.61,1.19,9.47,1.79,14.46,1.79,6.43,0,13.18-1,20.07-2.97.33-.09.65-.13.98-.13,1.22,0,2.38.63,3.04,1.71.83,1.36.65,3.12-.45,4.29Z"/>
    </g>
  </g>
</svg>