<?xml version="1.0" encoding="UTF-8"?>
<svg id="Layer_2" data-name="Layer 2" xmlns="http://www.w3.org/2000/svg" viewBox="0 0 885.98 624.84">
  <g id="Layer_1-2" data-name="Layer 1">
    <g>
      <g>
        <g>
          <path d="m360.99,71.61H46.2C20.68,71.61,0,92.29,0,117.81v314.79c0,25.51,20.68,46.18,46.2,46.18h314.79c25.51,0,46.2-20.68,46.2-46.18V159.41c-.02-.51-.02-1.01,0-1.5v-40.1c0-25.52-20.69-46.2-46.2-46.2Zm-110.99,304.26l-10.84-32.85h-71.4l-10.86,32.85h-58.83l73.4-201.36h64.54l73.12,201.36h-59.13Z"/>
          <polygon points="225.15 300.19 182.02 300.19 203.44 235.06 225.15 300.19"/>
        </g>
        <path d="m882.61,303.25L767.82,27.06c-9.3-22.39-34.99-32.99-57.38-23.68l-276.19,114.78c-16.63,6.92-26.76,22.85-27.06,39.76v1.5c.07,5.38,1.17,10.84,3.36,16.11l114.79,276.19c9.3,22.39,34.99,33.01,57.38,23.7l276.19-114.78c22.39-9.3,33.01-35,23.7-57.4Zm-263.65,51.38l-15.55-37.39,32.14-130.23-73.55,30.56-16.59-39.9,128.78-53.52,15.55,37.41-31.29,130.16,72.8-30.26,16.48,39.67-128.78,53.51Z"/>
      </g>
      <g>
        <path d="m0,623.14v-81.28h5.55v40.3l41.32-40.3h6.68l-42.11,41.09,43.24,40.19h-7.59l-41.54-38.49v38.49H0Z"/>
        <path d="m108.84,623.14v-81.28h5.55v81.28h-5.55Z"/>
        <path d="m175.95,623.14v-81.28h21.06c26.15,0,40.07,16.53,40.07,40.41s-14.49,40.87-40.07,40.87h-21.06Zm5.55-4.75h15.51c22.19,0,34.53-14.83,34.53-36.11s-12.11-35.66-34.53-35.66h-15.51v71.77Z"/>
        <path d="m319.56,624.27c-18.34,0-28.87-10.41-29.55-25.24h5.66c.91,12.45,8.6,20.6,23.89,20.6,12.57,0,22.64-6.57,22.64-17.43,0-9.51-5.21-13.58-18.34-16.3l-9.28-1.92c-10.19-2.04-22.07-6.45-22.07-20.83,0-12.45,10.98-22.41,26.72-22.41s26.94,9.62,27.73,24.79h-5.77c-.68-11.66-9.28-20.15-21.96-20.15-13.7,0-21.06,8.6-21.06,17.55,0,10.98,9.17,14.15,19.24,16.3l9.17,1.92c13.47,2.83,21.28,8.04,21.28,20.49s-9.85,22.64-28.3,22.64Z"/>
        <path d="m473.85,623.14v-3.62l49.13-72.9h-47.2v-4.75h54.22v3.62l-49.24,72.9h51.17v4.75h-58.07Z"/>
        <path d="m576.01,582.39c0-23.43,17.21-42.22,40.75-42.22s40.87,18.79,40.87,42.22-17.32,42.45-40.87,42.45-40.75-19.02-40.75-42.45Zm75.84,0c0-21.05-14.38-37.36-35.09-37.36s-35.09,16.3-35.09,37.36,14.49,37.58,35.09,37.58,35.09-16.53,35.09-37.58Z"/>
        <path d="m720.16,549.67v73.47h-5.21v-81.28h6.23l50.94,73.35v-73.35h5.21v81.28h-6.23l-50.94-73.47Z"/>
        <path d="m885.98,623.14h-46.75v-81.28h45.96v4.75h-40.41v32.15h37.02v4.75h-37.02v34.87h41.2v4.75Z"/>
      </g>
    </g>
  </g>
</svg>