<?xml version="1.0" encoding="UTF-8"?>
<svg id="Layer_2" data-name="Layer 2" xmlns="http://www.w3.org/2000/svg" viewBox="0 0 994.79 1210.19">
  <defs>
    <style>
      .cls-1 {
        fill: #0c0c0c;
      }
    </style>
  </defs>
  <g id="Layer_1-2" data-name="Layer 1">
    <g>
      <g>
        <g>
          <path d="m698.95,1128.29l-23.86-53.89h6.16l22.33,50.73h-3.39l22.48-50.73h5.77l-23.86,53.89h-5.62Z"/>
          <path d="m741.37,1128.29l24.63-53.89h5.62l24.63,53.89h-6l-22.63-50.58h2.31l-22.63,50.58h-5.93Zm9.7-14.4l1.69-4.62h31.33l1.69,4.62h-34.72Z"/>
          <path d="m820.58,1128.29v-53.89h5.7v48.96h30.18v4.93h-35.87Z"/>
          <path d="m902.03,1128.75c-6.88,0-12.29-1.98-16.24-5.93-3.95-3.95-5.93-9.8-5.93-17.55v-30.87h5.7v30.64c0,6.36,1.44,11.06,4.31,14.09,2.87,3.03,6.93,4.54,12.16,4.54s9.37-1.51,12.24-4.54c2.87-3.03,4.31-7.72,4.31-14.09v-30.64h5.54v30.87c0,7.75-1.96,13.6-5.89,17.55-3.93,3.95-9.33,5.93-16.2,5.93Z"/>
          <path d="m962.38,1123.36h32.41v4.93h-38.11v-53.89h36.95v4.93h-31.25v44.03Zm-.62-24.86h28.48v4.85h-28.48v-4.85Z"/>
        </g>
        <g>
          <path d="m769.08,1209.66c-4.05,0-7.8-.68-11.24-2.04-3.44-1.36-6.42-3.27-8.93-5.73-2.52-2.46-4.48-5.36-5.89-8.7-1.41-3.34-2.12-6.98-2.12-10.93s.7-7.59,2.12-10.93c1.41-3.34,3.39-6.24,5.93-8.7,2.54-2.46,5.53-4.37,8.97-5.73,3.44-1.36,7.18-2.04,11.24-2.04s7.57.65,11.01,1.96c3.44,1.31,6.34,3.27,8.7,5.89l-3.62,3.62c-2.21-2.26-4.64-3.89-7.31-4.89-2.67-1-5.54-1.5-8.62-1.5-3.23,0-6.24.55-9.01,1.65-2.77,1.1-5.18,2.67-7.24,4.7-2.05,2.03-3.66,4.39-4.81,7.08-1.15,2.69-1.73,5.66-1.73,8.89s.58,6.2,1.73,8.89c1.16,2.69,2.76,5.06,4.81,7.08,2.05,2.03,4.46,3.59,7.24,4.7,2.77,1.1,5.77,1.65,9.01,1.65s5.95-.51,8.62-1.54c2.67-1.03,5.11-2.67,7.31-4.93l3.62,3.62c-2.36,2.62-5.26,4.59-8.7,5.93-3.44,1.33-7.13,2-11.09,2Z"/>
          <path d="m806.42,1209.19l24.63-53.89h5.62l24.63,53.89h-6l-22.63-50.58h2.31l-22.63,50.58h-5.93Zm9.7-14.4l1.69-4.62h31.33l1.69,4.62h-34.72Z"/>
          <path d="m885.63,1209.19v-53.89h20.17c4.57,0,8.49.73,11.78,2.19s5.81,3.57,7.58,6.31c1.77,2.75,2.66,6.07,2.66,9.97s-.89,7.07-2.66,9.82c-1.77,2.75-4.3,4.85-7.58,6.31s-7.21,2.19-11.78,2.19h-17.01l2.54-2.62v19.71h-5.7Zm5.7-19.25l-2.54-2.69h16.86c5.39,0,9.48-1.18,12.28-3.54,2.8-2.36,4.2-5.67,4.2-9.93s-1.4-7.65-4.2-10.01c-2.8-2.36-6.89-3.54-12.28-3.54h-16.86l2.54-2.69v32.41Zm31.1,19.25l-13.86-19.55h6.16l13.93,19.55h-6.24Z"/>
          <path d="m962.38,1204.27h32.41v4.93h-38.11v-53.89h36.95v4.93h-31.25v44.03Zm-.62-24.86h28.48v4.85h-28.48v-4.85Z"/>
        </g>
        <path d="m692.25,1209.65c-2.98,0-5.54-.49-7.7-1.46-2.16-.97-3.82-2.32-5-4.04-1.18-1.72-1.77-3.73-1.77-6.04s.56-4.37,1.69-6.35c1.13-1.98,3.03-3.98,5.7-6.01,2.67-2.03,6.34-4.22,11.01-6.58,4.11-2.1,7.35-3.93,9.74-5.47,2.39-1.54,4.08-3.08,5.08-4.62s1.5-3.31,1.5-5.31-.74-3.6-2.23-4.97c-1.49-1.36-3.62-2.04-6.39-2.04-3.49,0-6.29.96-8.39,2.89-2.11,1.92-3.16,4.48-3.16,7.66,0,1.64.36,3.34,1.08,5.08.72,1.75,1.8,3.62,3.23,5.62l22.71,31.33-1.16.85-22.86-31.56c-1.44-2-2.55-3.9-3.35-5.7-.8-1.8-1.19-3.62-1.19-5.47,0-2.46.54-4.61,1.62-6.43,1.08-1.82,2.59-3.23,4.54-4.23,1.95-1,4.26-1.5,6.93-1.5,2.05,0,3.84.36,5.35,1.08,1.51.72,2.68,1.71,3.5,2.96.82,1.26,1.23,2.73,1.23,4.43,0,2.16-.53,4.08-1.58,5.77-1.05,1.69-2.81,3.39-5.27,5.08-2.46,1.69-5.85,3.62-10.16,5.77-4.57,2.31-8.14,4.4-10.7,6.27-2.57,1.87-4.36,3.72-5.39,5.54-1.03,1.82-1.54,3.79-1.54,5.89,0,3.03,1.15,5.49,3.46,7.39,2.31,1.9,5.49,2.85,9.55,2.85s7.4-.77,10.66-2.31c3.26-1.54,6.2-3.87,8.82-7,2.62-3.13,4.85-7.11,6.7-11.93l1.39.31c-1.95,5.08-4.31,9.26-7.08,12.55-2.77,3.29-5.88,5.72-9.32,7.31-3.44,1.59-7.19,2.39-11.24,2.39Z"/>
      </g>
      <g>
        <g>
          <polygon points="220.51 534.8 553.37 99.4 675.25 278.49 330.22 717.64 220.51 534.8"/>
          <polygon points="410.62 646.04 564.44 450.27 724.04 475.28 766.8 684.07 410.62 646.04"/>
          <polygon points="0 534.8 10.41 705.6 310.04 720.9 202.35 541.46 0 534.8"/>
          <polygon points="578.91 433.31 686.41 295.03 861.33 313.61 725.48 456.29 578.91 433.31"/>
          <polygon points="747.24 467.17 789.06 671 986.56 459.99 873.46 331.7 747.24 467.17"/>
          <polygon points="0 515.8 195.2 522.22 273.36 425.05 37.88 454.51 0 515.8"/>
          <polygon points="136.68 351.11 354.48 321.81 381.19 287.81 161.1 319.46 136.68 351.11"/>
          <polygon points="188.11 284.44 352.7 88.62 537.69 88.62 407.11 254.81 188.11 284.44"/>
        </g>
        <path d="m368.66,60.96c-32.07,2.55-57.63,28.22-60,60.35-2.16-32.82-28.52-59.04-61.4-60.96,32.07-2.55,57.63-28.22,59.99-60.34,2.16,32.82,28.52,59.03,61.41,60.96Z"/>
        <path d="m949.8,284.66c-23.37,1.86-42,20.57-43.72,43.98-1.57-23.92-20.78-43.03-44.75-44.43,23.37-1.86,42-20.57,43.72-43.98,1.57,23.92,20.79,43.02,44.75,44.43Z"/>
      </g>
      <g>
        <path class="cls-1" d="m426.76,1179.76l17.81-1.97s-5.02,20.16-41.18,30.83c-24.51,5.56-52.04-6.15-61.58-39.02-12.29-47.16,33.53-60.88,37.86-61.6,4.33-.72,40.86-8.21,57.65,29.64l-70.9,25.57s11.65,48.18,36.45,43.5c0,0,20.97-5.83,23.88-26.95Zm-61.93-21.25l46.01-17.24s-10.64-34.5-31.49-29.85c-20.84,4.65-14.52,47.09-14.52,47.09Z"/>
        <path class="cls-1" d="m538,1179.76l17.81-1.97s-5.02,20.16-41.18,30.83c-24.51,5.56-52.04-6.15-61.58-39.02-12.29-47.16,33.53-60.88,37.86-61.6,4.33-.72,40.86-8.21,57.65,29.64l-70.9,25.57s11.65,48.18,36.45,43.5c0,0,20.97-5.83,23.88-26.95Zm-61.93-21.25l46.01-17.24s-10.64-34.5-31.49-29.85c-20.84,4.65-14.52,47.09-14.52,47.09Z"/>
        <path class="cls-1" d="m142.12,1131.94c.01,1.6-.03,2.91-.05,4.31l-.17,4.39c-.1,1.61-.26,3.22-.47,4.83-.85,6.46-2.52,13-5.36,19.22-1.36,3.12-3.09,6.12-4.96,9-1.84,2.89-3.98,5.62-6.27,8.16-2.3,2.53-4.71,4.91-7.28,7.05-2.6,2.11-5.25,4.05-7.97,5.79-.67.45-1.36.86-2.05,1.27l-1.03.61c-.35.19-.7.38-1.04.58-.69.4-1.37.78-2.08,1.14-.7.36-1.39.73-2.1,1.05-2.78,1.41-5.62,2.59-8.45,3.68-5.69,2.11-11.45,3.6-17.21,4.64-5.76,1.05-11.51,1.66-17.26,2.08-1.44.11-2.88.13-4.32.22-1.44.08-2.89.13-4.33.15-1.45.02-2.9.08-4.37.08h-2.22s-1.13,0-1.13,0c-.4-.01-.73,0-1.24-.03v-.04s-21.56,0-21.56,0h0s-19.2,0-19.2,0c0,0,19.17-.42,19.17-19.17h.03v-121.51h-.03c0-18.75-19.17-19.17-19.17-19.17l19.2-.28h23.21v.04h4.82c1.79-.02,3.59-.04,5.39-.01,2.86,0,5.73.13,8.62.27,2.89.14,5.78.38,8.69.74,2.91.33,5.83.75,8.75,1.34,1.46.3,2.92.62,4.37,1,1.46.35,2.93.73,4.39,1.18,2.91.87,5.81,1.93,8.66,3.21.71.31,1.41.66,2.13.98.71.33,1.41.69,2.12,1.04l2.09,1.13,2.08,1.19c1.38.82,2.74,1.68,4.07,2.62.66.47,1.34.92,1.99,1.41.66.48,1.31.97,1.95,1.49.65.5,1.27,1.04,1.9,1.57.64.52,1.25,1.08,1.87,1.63,1.23,1.12,2.41,2.29,3.58,3.48,2.33,2.4,4.47,4.98,6.44,7.7,1.98,2.7,3.77,5.54,5.39,8.45,1.6,2.92,2.99,5.93,4.24,8.96.3.76.62,1.52.9,2.29l.8,2.31c.51,1.54,1.01,3.09,1.4,4.65,1.71,6.22,2.63,12.49,2.94,18.67.08,1.54.16,3.09.14,4.62Zm-26.57-4.1c-.08-2.58-.09-5.16-.25-7.72-.14-2.56-.38-5.09-.64-7.61-.58-5.03-1.46-9.97-2.87-14.71-1.39-4.74-3.33-9.28-5.9-13.42-1.28-2.08-2.77-4.01-4.38-5.85-.4-.46-.81-.91-1.24-1.35-.42-.45-.85-.88-1.3-1.3-.89-.84-1.83-1.64-2.79-2.42-1.93-1.54-3.98-2.96-6.17-4.19-2.19-1.22-4.48-2.31-6.84-3.25-4.73-1.89-9.76-3.26-14.91-4.17-5.17-.86-10.45-1.29-15.77-1.41-2.66-.06-5.33,0-8,.12-.68.03-1.37.07-2.05.11v137.68l.06-.42c.17.07.53.15.81.22l.92.22c.62.14,1.25.28,1.89.38,1.28.22,2.57.43,3.87.57,2.61.28,5.24.47,7.87.47,1.32.01,2.63-.01,3.95-.05,1.31-.06,2.63-.17,3.94-.29,2.62-.25,5.23-.59,7.8-1.16,2.57-.55,5.11-1.17,7.58-2,2.47-.85,4.88-1.82,7.21-2.94,4.66-2.23,8.95-5.15,12.5-8.74,3.61-3.52,6.47-7.69,8.57-12.16,2.14-4.46,3.49-9.22,4.42-14.06.92-4.84,1.37-9.81,1.55-14.84.06-1.25.04-2.52.1-3.78,0-1.34-.01-2.64,0-4,.1-2.8.13-5.33.09-7.93Z"/>
        <path class="cls-1" d="m249.47,1158.68c0,28.45-22.68,51.51-50.67,51.51s-50.67-23.06-50.67-51.51,22.68-51.51,50.67-51.51,50.67,23.06,50.67,51.51Zm-25.94,0c0-27.21-11.07-49.27-24.73-49.27s-24.73,22.06-24.73,49.27,11.07,49.27,24.73,49.27,24.73-22.06,24.73-49.27Z"/>
        <path class="cls-1" d="m333.06,1124.93c-.16,7.94-6.68,14.33-14.71,14.33s-14.72-6.55-14.72-14.62c0-5.72,3.3-10.66,8.12-13.07-1.06-.18-2.15-.26-3.24-.3-.61-.03-1.2.01-1.8.02-.6,0-1.18.1-1.78.15-2.36.28-4.62.98-6.67,2.02-2.05,1.05-3.86,2.5-5.33,4.21-1.49,1.7-2.61,3.69-3.38,5.79-.26.72-.48,1.45-.64,2.19v67.2c1.2,16.95,19.1,17.35,19.1,17.35h-19.1s-23.21,0-23.21,0h0s-19.2,0-19.2,0c0,0,19.17-.42,19.17-19.17h.03v-65.02h-.03c0-18.75-19.17-19.17-19.17-19.17h42.41v5.82c1.15-.75,2.31-1.48,3.54-2.06.63-.33,1.29-.61,1.94-.91.66-.25,1.31-.53,1.99-.74,2.67-.91,5.42-1.47,8.15-1.67.68-.04,1.37-.09,2.05-.11.68,0,1.37-.02,2.04,0,1.34.03,2.69.09,4.05.22l1.02.1,1.03.15c.69.07,1.38.24,2.07.36,1.39.31,2.79.68,4.19,1.23,1.4.56,2.79,1.27,4.12,2.2.39.28.77.57,1.15.88,3.69,2.34,6.26,6.25,6.74,10.8,0,.03.02.06.03.09"/>
        <path class="cls-1" d="m211.04,1158.35c-6.47.51-11.62,5.69-12.1,12.17-.44-6.62-5.75-11.9-12.38-12.29,6.47-.51,11.62-5.69,12.1-12.17.44,6.62,5.75,11.9,12.38,12.29Z"/>
      </g>
      <g>
        <path class="cls-1" d="m121.61,1021.92h-30.27c10.74-.24,14.26-.08,22.94-9.52l-19.17-53.75c-4.11,1.02-8.16,2.27-12.16,3.62-8.04,2.75-15.85,6.14-23.29,10.15-3.72,2.01-7.33,4.19-10.82,6.52-1.74,1.17-3.46,2.37-5.11,3.63-.83.63-1.64,1.27-2.44,1.91-.16.14-.33.27-.49.41l-8.99,28.07c8.27,8.87,11.25,8.72,21.77,8.95H0c10.79-.24,13.66-.07,22.43-9.67l10.55-32.55-.04-.04.06-.05,37.92-116.96h13.24l30.95,86.38c6.01-.53,17.57.96,23.58,1.02h0c-5.39.16-16.27,3.86-21.61,4.5l20.62,57.2.21.32c8.91,9.78,11.08,9.61,21.95,9.85h0s-28.97,0-28.97,0m-38.01-69.5l-21.97-61.6-25.71,80.28c3.5-2.11,7.09-4.07,10.74-5.87,8.02-3.93,16.34-7.16,24.84-9.7,4-1.17,8.02-2.25,12.09-3.12Z"/>
        <path class="cls-1" d="m241.75,1021.92l.18-51.69c0-25.66-.46-47.1-14.66-47.1-11.69,0-21.39,14.55-24.44,34.02v51.2c3.38,13.2,18.49,13.55,18.49,13.55h-18.49v.02h-23.21s-19.2,0-19.2,0c0,0,19.17-.42,19.17-19.17h.03v-65.03h-.03c0-18.75-19.17-19.17-19.17-19.17h42.41v10.81c6.39-7.02,15.07-11.25,26.04-11.25,15.55,0,26.07,8.5,32.01,21.42,6.32-12.92,17.3-21.42,32.85-21.42,25.97,0,37.92,23.7,37.92,52.13h-.1v35.47c1.92,15.81,18.99,16.2,18.99,16.2h-19.3l-6.1.02h-18.35v-51.69c0-25.66-.46-47.1-14.66-47.1s-24.57,19.81-25.4,44.12c.03.99.05,1.99.05,2.99h-.1v37.65c3.14,13.66,18.61,14.01,18.61,14.01h-19.3"/>
        <path class="cls-1" d="m515.51,998.78c-1.27,18.22-45.41,35.63-54.31,10.85,0,0-2.2-4.6-2.23-16.35l-.14-54.66h-.08c0-1.45-.13-2.77-.34-4.01l-.06-.08v-.26c-2.71-14.46-18.77-14.82-18.77-14.82h18.85l.2-25.72s23.24-2.38,23.24,12.9v12.43h.12v1.4h23.26v5.65h-23.24l.17,66.94c.21,28.65,12.25,25.87,18.14,5.53,8.61.12,10.58.12,15.19.2Z"/>
        <path class="cls-1" d="m619,1021.25v.11h-23.46v-51.12c0-25.66-5.66-47.1-19.86-47.1-11.62,0-20.83,14.37-23.79,33.65v65.14h-23.21s-19.2,0-19.2,0c0,0,19.17-.42,19.17-19.17h.03v-120.94h-.03c0-18.75-19.17-19.17-19.17-19.17h42.41v66.28c6.22-6.75,14.66-10.8,25.38-10.8,25.97,0,41.83,23.7,41.83,52.13h-.1v35.67c2.42,14.96,18.86,15.34,18.86,15.34h-18.86Z"/>
        <path class="cls-1" d="m716.35,923.76l-60.14,137.26c-11.89,30.12-26.28,11.34-30.67,4.39-3.04-3.73-3.12-9.2.07-13.03,3.62-4.36,10.1-4.96,14.46-1.34,4.36,3.62,4.96,10.09,1.34,14.46-.49.59-1.04,1.11-1.63,1.57l.08.02c-1.11,3.54-.51,4.81,1.93,5.45,2.14.56,7.84-10,9.18-12.55l17.27-39.79-31.14-86.84c-5.65-11.08-21.04-15.65-21.04-15.65l15.09-.31h25.91l24.74,71.55,28.18-64.92c-5.48-5.91-7.4-5.81-14.3-5.97h19.3l2.62.06h16.44"/>
        <path class="cls-1" d="m814.55,996.69c-3.71,22.03-25.84,24.78-34.88,25.21-8.29.39-26.83-3.58-34.45-6.4-6.01-.8-10.65-5.94-10.65-12.17,0-6.78,5.5-12.29,12.29-12.29,6.13,0,11.19,4.49,12.12,10.35l.07-.08c1.86,11.01,8.33,14.96,17.84,15.28,5.91.1,17.96.42,20.74-15.04,2.78-15.46-28.16-25.18-28.16-25.18-41.04-14.62-35.94-33.08-35.94-33.08,3.55-26.05,38.95-24.78,38.95-24.78,9.08-.53,18.62,1.32,26.78,4.52,5.74,1.03,10.11,6.04,10.11,12.08,0,6.79-5.5,12.29-12.29,12.29s-12.29-5.5-12.29-12.29c0-2.08.52-4.04,1.43-5.75-1.4-4.94-6.45-7.66-13.51-7.46-22.72.64-24.11,15.68-23.26,21.04.85,5.37,15.84,11.34,27.44,16,11.59,4.66,41.37,15.7,37.66,37.73Z"/>
        <path class="cls-1" d="m887.41,998.78c-1.27,18.22-45.41,35.63-54.31,10.85,0,0-2.2-4.6-2.23-16.35l-.14-54.66h-.08c0-1.45-.13-2.77-.34-4.01l-.06-.08v-.26c-2.71-14.46-18.77-14.82-18.77-14.82h18.85l.2-25.72s23.24-2.38,23.24,12.9v12.43h.12v1.4h23.26v5.65h-23.24l.17,66.94c.21,28.65,12.25,25.87,18.14,5.53,8.61.12,10.58.12,15.19.2Z"/>
        <path class="cls-1" d="m974.48,991.49l17.81-1.97s-5.02,20.16-41.18,30.83c-24.51,5.56-52.04-6.15-61.58-39.02-12.29-47.16,33.53-60.88,37.86-61.6,4.33-.72,40.86-8.21,57.65,29.64l-70.9,25.57s11.65,48.18,36.45,43.5c0,0,20.97-5.83,23.88-26.95Zm-61.93-21.25l46.01-17.24s-10.64-34.5-31.49-29.85c-20.84,4.65-14.52,47.09-14.52,47.09Z"/>
        <path class="cls-1" d="m428.08,992.43l17.81-1.97s-5.02,20.16-41.18,30.83c-24.51,5.56-52.04-6.15-61.58-39.02-12.29-47.16,33.53-60.88,37.86-61.6,4.33-.72,40.86-8.21,57.65,29.64l-70.9,25.57s11.65,48.18,36.45,43.5c0,0,20.97-5.83,23.88-26.95Zm-61.93-21.25l46.01-17.24s-10.64-34.5-31.49-29.85c-20.84,4.65-14.52,47.09-14.52,47.09Z"/>
        <path class="cls-1" d="m166.85,950.12c-6.47.51-11.62,5.69-12.1,12.17-.44-6.62-5.75-11.9-12.38-12.29,6.47-.51,11.62-5.69,12.1-12.17.44,6.62,5.75,11.9,12.38,12.29Z"/>
      </g>
    </g>
  </g>
</svg>