<?xml version="1.0" encoding="UTF-8"?>
<svg id="Layer_2" data-name="Layer 2" xmlns="http://www.w3.org/2000/svg" viewBox="0 0 228.99 425.83">
  <g id="Layer_1-2" data-name="Layer 1">
    <g>
      <g>
        <path d="m223.7,234.25c-14.35,39.23-56.32,67.62-105.85,67.62s-91.5-28.4-105.85-67.62h48.45c11.61,17.17,32.97,28.67,57.4,28.67s45.79-11.51,57.4-28.67h48.45Z"/>
        <path d="m228.99,155.81v38.95h-44.46v-38.95c0-16.14-7.46-30.74-19.53-41.31-12.07-10.57-28.74-17.11-47.15-17.11-36.83,0-66.68,26.16-66.68,58.43v38.95H6.71V0h44.46v77.9c18.57-12.22,41.66-19.47,66.68-19.47,15.34,0,29.96,2.73,43.26,7.65,39.89,14.78,67.88,49.39,67.88,89.73Z"/>
      </g>
      <g>
        <path d="m0,367.76v-37.25h3.72v16.2c2.16-3,6.24-5.05,10.99-5.05,8.29,0,13.21,5.1,13.21,12.73v13.36h-3.72v-13.1c0-5.31-3.36-9.89-9.97-9.89-6.06,0-10.51,4.31-10.51,10.15v12.84H0Z"/>
        <path d="m32.42,354.92c0-7.37,5.82-13.31,14.35-13.31s13.99,5.31,13.99,12.57v1.95h-24.68c.6,5.21,5.16,9.05,11.35,9.05,3.96,0,7.57-1.32,9.67-4.58l2.88,1.37c-2.64,4.21-7.21,6.31-12.55,6.31-8.59,0-15.01-5.73-15.01-13.36Zm24.62-1.42c-.12-5.31-4.38-8.79-10.27-8.79s-10.03,3.84-10.57,8.79h20.84Z"/>
        <path d="m68.53,367.76c-3.3,0-5.1-2-5.1-4.05,0-1.79.78-2.84,2.4-4l16.75-11.52c.72-.47,1.08-1,1.08-1.63,0-.89-.84-1.37-1.98-1.37h-17.83v-2.95h18.43c3.3,0,5.1,2,5.1,4.05,0,1.79-.78,2.84-2.4,4l-16.75,11.52c-.72.47-1.08,1-1.08,1.63,0,.89.84,1.37,1.98,1.37h18.19v2.95h-18.79Z"/>
        <path d="m89.36,354.92c0-7.37,5.82-13.31,14.35-13.31s13.99,5.31,13.99,12.57v1.95h-24.68c.6,5.21,5.16,9.05,11.35,9.05,3.96,0,7.57-1.32,9.67-4.58l2.88,1.37c-2.64,4.21-7.21,6.31-12.55,6.31-8.59,0-15.01-5.73-15.01-13.36Zm24.62-1.42c-.12-5.31-4.38-8.79-10.27-8.79s-10.03,3.84-10.57,8.79h20.84Z"/>
        <path d="m123.23,367.76v-37.3h3.72v22.99h4.38c.3-.68.84-1.37,1.56-2l10.51-9.21h4.68l-12.73,11.15c-.6.53-.96,1-.96,1.58,0,.53.36,1.05.96,1.58l12.67,11.21h-4.86l-10.39-9.15c-.78-.68-1.26-1.47-1.56-2.26h-4.26v11.42h-3.72Z"/>
        <path d="m151.25,333.67c0-1.37,1.2-2.42,2.7-2.42s2.64,1.05,2.64,2.42-1.14,2.42-2.64,2.42-2.7-1.05-2.7-2.42Zm4.56,8.58v25.52h-3.72v-25.52h3.72Z"/>
        <path d="m160.92,354.92c0-7.26,6.54-13.26,15.25-13.26s15.31,5.79,15.31,13.26v12.84h-3.54v-5.95c-2.22,3.84-6.73,6.47-12.25,6.47-8.41,0-14.77-6-14.77-13.36Zm26.84.05c0-5.58-5.1-10.21-11.59-10.21s-11.53,4.63-11.53,10.21,5.1,10.21,11.53,10.21,11.59-4.63,11.59-10.21Z"/>
        <path d="m198.43,367.76v-37.25h3.72v16.2c2.16-3,6.24-5.05,10.99-5.05,8.29,0,13.21,5.1,13.21,12.73v13.36h-3.72v-13.1c0-5.31-3.36-9.89-9.97-9.89-6.06,0-10.51,4.31-10.51,10.15v12.84h-3.72Z"/>
      </g>
      <g>
        <path d="m0,401v-24.52h3.72v16.63c2.46-3.26,6.79-5.47,11.71-5.47,8.65,0,15.13,5.84,15.13,13.36s-6.54,13.31-15.25,13.31-15.31-5.84-15.31-13.31Zm26.84,0c0-5.58-5.1-10.26-11.53-10.26s-11.59,4.68-11.59,10.26,5.1,10.21,11.59,10.21,11.53-4.63,11.53-10.21Z"/>
        <path d="m33.42,400.9c0-7.26,6.54-13.26,15.25-13.26s15.31,5.79,15.31,13.26v12.84h-3.54v-5.95c-2.22,3.84-6.73,6.47-12.25,6.47-8.41,0-14.77-6-14.77-13.36Zm26.84.05c0-5.58-5.1-10.21-11.59-10.21s-11.53,4.63-11.53,10.21,5.1,10.21,11.53,10.21,11.59-4.63,11.59-10.21Z"/>
        <path d="m73.91,400.95v12.78h-3.72v-13.05c0-7.37,5.1-13.05,13.87-13.05s14.17,5.63,14.17,13v13.1h-3.72v-12.73c0-5.47-3.66-10.26-10.45-10.26s-10.15,4.79-10.15,10.21Z"/>
        <path d="m105.22,413.73v-37.3h3.72v22.99h4.38c.3-.68.84-1.37,1.56-2l10.51-9.21h4.68l-12.73,11.15c-.6.53-.96,1-.96,1.58,0,.53.36,1.05.96,1.58l12.67,11.21h-4.86l-10.39-9.15c-.78-.68-1.26-1.47-1.56-2.26h-4.26v11.42h-3.72Z"/>
        <path d="m129.48,400.9c0-7.31,6.79-13.26,15.31-13.26s15.25,6,15.25,13.26-6.67,13.36-15.25,13.36-15.31-6-15.31-13.36Zm26.84.05c0-5.58-5.1-10.21-11.53-10.21s-11.59,4.63-11.59,10.21,5.1,10.21,11.59,10.21,11.53-4.63,11.53-10.21Z"/>
        <path d="m168.79,388.22v28.36c0,5.47-3.72,9.26-10.03,9.26l-.12-3.1c4.02,0,6.43-2.58,6.43-6.26v-28.25h3.72Zm-4.56-8.58c0-1.37,1.2-2.42,2.7-2.42s2.64,1.05,2.64,2.42-1.14,2.42-2.64,2.42-2.7-1.05-2.7-2.42Z"/>
        <path d="m173.36,400.9c0-7.37,5.82-13.31,14.35-13.31s13.99,5.31,13.99,12.57v1.95h-24.68c.6,5.21,5.16,9.05,11.35,9.05,3.96,0,7.57-1.32,9.67-4.58l2.88,1.37c-2.64,4.21-7.21,6.31-12.55,6.31-8.59,0-15.01-5.73-15.01-13.36Zm24.62-1.42c-.12-5.31-4.38-8.79-10.27-8.79s-10.03,3.84-10.57,8.79h20.84Z"/>
      </g>
    </g>
  </g>
</svg>