<?xml version="1.0" encoding="UTF-8"?>
<svg id="Layer_2" data-name="Layer 2" xmlns="http://www.w3.org/2000/svg" viewBox="0 0 859.63 1332.43">
  <defs>
    <style>
      .cls-1 {
        fill: #f6f6f6;
      }
    </style>
  </defs>
  <g id="Layer_1-2" data-name="Layer 1">
    <g>
      <path class="cls-1" d="m839.19,1033.95c-55.49,173.15-217.8,298.48-409.38,298.48s-353.88-125.33-409.38-298.48h187.39c44.92,75.77,127.52,126.56,221.99,126.56s177.07-50.79,221.99-126.56h187.39Z"/>
      <path class="cls-1" d="m859.63,687.71v171.93h-171.93v-171.93c0-71.22-28.86-135.69-75.53-182.36-46.66-46.67-111.14-75.53-182.36-75.53-142.43,0-257.89,115.46-257.89,257.89v171.93H0V0h171.93v343.82c71.83-53.95,161.13-85.93,257.89-85.93,59.34,0,115.88,12.03,167.31,33.78,154.27,65.25,262.51,218,262.51,396.04Z"/>
    </g>
  </g>
</svg>