<?xml version="1.0" encoding="UTF-8"?>
<svg id="Layer_2" data-name="Layer 2" xmlns="http://www.w3.org/2000/svg" viewBox="0 0 1078.66 525.24">
  <defs>
    <style>
      .cls-1 {
        fill: #f6f6f6;
      }
    </style>
  </defs>
  <g id="Layer_1-2" data-name="Layer 1">
    <g>
      <g>
        <path class="cls-1" d="m330.81,407.58c-21.88,68.26-85.86,117.66-161.37,117.66S29.93,475.83,8.06,407.58h73.87c17.71,29.87,50.27,49.89,87.51,49.89s69.8-20.02,87.51-49.89h73.87Z"/>
        <path class="cls-1" d="m338.86,271.09v67.77h-67.77v-67.77c0-28.07-11.38-53.49-29.78-71.88-18.4-18.4-43.81-29.78-71.88-29.78-56.15,0-101.66,45.51-101.66,101.66v67.77H0V0h67.77v135.53c28.32-21.27,63.52-33.87,101.66-33.87,23.39,0,45.68,4.74,65.95,13.31,60.81,25.72,103.48,85.94,103.48,156.12Z"/>
      </g>
      <g>
        <g>
          <path class="cls-1" d="m448.84,265.11v-118.29h10.36v51.46c6.01-9.52,17.38-16.04,30.57-16.04,23.06,0,36.76,16.21,36.76,40.43v42.44h-10.36v-41.6c0-16.87-9.36-31.41-27.74-31.41-16.88,0-29.24,13.7-29.24,32.25v40.77h-10.36Z"/>
          <path class="cls-1" d="m539.07,224.35c0-23.39,16.21-42.27,39.93-42.27s38.93,16.88,38.93,39.93v6.18h-68.67c1.67,16.54,14.37,28.74,31.58,28.74,11.03,0,21.05-4.18,26.9-14.54l8.02,4.34c-7.35,13.37-20.05,20.05-34.92,20.05-23.89,0-41.77-18.21-41.77-42.44Zm68.5-4.51c-.33-16.88-12.2-27.9-28.57-27.9s-27.9,12.2-29.41,27.9h57.98Z"/>
          <path class="cls-1" d="m639.53,265.11c-9.19,0-14.2-6.35-14.2-12.86,0-5.68,2.17-9.02,6.68-12.7l46.61-36.59c2-1.5,3.01-3.17,3.01-5.18,0-2.84-2.34-4.34-5.51-4.34h-49.62v-9.36h51.29c9.19,0,14.2,6.35,14.2,12.86,0,5.68-2.17,9.02-6.68,12.7l-46.61,36.59c-2,1.5-3.01,3.17-3.01,5.18,0,2.84,2.34,4.34,5.51,4.34h50.62v9.36h-52.29Z"/>
          <path class="cls-1" d="m697.49,224.35c0-23.39,16.21-42.27,39.93-42.27s38.93,16.88,38.93,39.93v6.18h-68.67c1.67,16.54,14.37,28.74,31.58,28.74,11.03,0,21.05-4.18,26.9-14.54l8.02,4.34c-7.35,13.37-20.05,20.05-34.92,20.05-23.89,0-41.77-18.21-41.77-42.44Zm68.5-4.51c-.33-16.88-12.2-27.9-28.57-27.9s-27.9,12.2-29.41,27.9h57.98Z"/>
          <path class="cls-1" d="m791.72,265.11v-118.46h10.36v73.01h12.2c.84-2.17,2.34-4.34,4.34-6.35l29.24-29.24h13.03l-35.42,35.42c-1.67,1.67-2.67,3.17-2.67,5.01,0,1.67,1,3.34,2.67,5.01l35.25,35.59h-13.53l-28.9-29.07c-2.17-2.17-3.51-4.68-4.34-7.18h-11.86v36.26h-10.36Z"/>
          <path class="cls-1" d="m869.7,156.85c0-4.34,3.34-7.69,7.52-7.69s7.35,3.34,7.35,7.69-3.17,7.69-7.35,7.69-7.52-3.34-7.52-7.69Zm12.7,27.23v81.03h-10.36v-81.03h10.36Z"/>
          <path class="cls-1" d="m896.61,224.35c0-23.06,18.21-42.1,42.44-42.1s42.6,18.38,42.6,42.1v40.77h-9.86v-18.88c-6.18,12.2-18.71,20.55-34.08,20.55-23.39,0-41.1-19.05-41.1-42.44Zm74.68.17c0-17.71-14.2-32.41-32.25-32.41s-32.08,14.7-32.08,32.41,14.2,32.41,32.08,32.41,32.25-14.7,32.25-32.41Z"/>
          <path class="cls-1" d="m1000.97,265.11v-118.29h10.36v51.46c6.01-9.52,17.38-16.04,30.57-16.04,23.06,0,36.76,16.21,36.76,40.43v42.44h-10.36v-41.6c0-16.87-9.36-31.41-27.74-31.41-16.88,0-29.24,13.7-29.24,32.25v40.77h-10.36Z"/>
        </g>
        <g>
          <path class="cls-1" d="m448.84,370.68v-77.86h10.36v52.8c6.85-10.36,18.88-17.38,32.58-17.38,24.06,0,42.1,18.55,42.1,42.44s-18.21,42.27-42.44,42.27-42.6-18.55-42.6-42.27Zm74.68,0c0-17.71-14.2-32.58-32.08-32.58s-32.25,14.87-32.25,32.58,14.2,32.41,32.25,32.41,32.08-14.7,32.08-32.41Z"/>
          <path class="cls-1" d="m541.82,370.34c0-23.06,18.21-42.1,42.44-42.1s42.6,18.38,42.6,42.1v40.77h-9.86v-18.88c-6.18,12.2-18.71,20.55-34.08,20.55-23.39,0-41.1-19.05-41.1-42.44Zm74.68.17c0-17.71-14.2-32.41-32.25-32.41s-32.08,14.7-32.08,32.41,14.2,32.41,32.08,32.41,32.25-14.7,32.25-32.41Z"/>
          <path class="cls-1" d="m654.5,370.51v40.6h-10.36v-41.44c0-23.39,14.2-41.44,38.6-41.44s39.43,17.88,39.43,41.27v41.6h-10.36v-40.43c0-17.38-10.19-32.58-29.07-32.58s-28.24,15.2-28.24,32.41Z"/>
          <path class="cls-1" d="m741.61,411.11v-118.46h10.36v73.01h12.2c.84-2.17,2.34-4.34,4.34-6.35l29.24-29.24h13.03l-35.42,35.42c-1.67,1.67-2.67,3.17-2.67,5.01,0,1.67,1,3.34,2.67,5.01l35.25,35.59h-13.53l-28.9-29.07c-2.17-2.17-3.51-4.68-4.34-7.18h-11.86v36.26h-10.36Z"/>
          <path class="cls-1" d="m809.11,370.34c0-23.22,18.88-42.1,42.6-42.1s42.44,19.05,42.44,42.1-18.55,42.44-42.44,42.44-42.6-19.05-42.6-42.44Zm74.68.17c0-17.71-14.2-32.41-32.08-32.41s-32.25,14.7-32.25,32.41,14.2,32.41,32.25,32.41,32.08-14.7,32.08-32.41Z"/>
          <path class="cls-1" d="m918.5,330.08v90.05c0,17.38-10.36,29.41-27.9,29.41l-.33-9.86c11.19,0,17.88-8.19,17.88-19.88v-89.72h10.36Zm-12.7-27.23c0-4.34,3.34-7.69,7.52-7.69s7.35,3.34,7.35,7.69-3.17,7.69-7.35,7.69-7.52-3.34-7.52-7.69Z"/>
          <path class="cls-1" d="m931.22,370.34c0-23.39,16.21-42.27,39.93-42.27s38.93,16.88,38.93,39.93v6.18h-68.67c1.67,16.54,14.37,28.74,31.58,28.74,11.03,0,21.05-4.18,26.9-14.54l8.02,4.34c-7.35,13.37-20.05,20.05-34.92,20.05-23.89,0-41.77-18.21-41.77-42.44Zm68.5-4.51c-.33-16.88-12.2-27.9-28.57-27.9s-27.9,12.2-29.41,27.9h57.98Z"/>
        </g>
      </g>
    </g>
  </g>
</svg>